<?xml version="1.0" encoding="utf-8"?>
<!-- Generator: Adobe Illustrator 16.0.4, SVG Export Plug-In . SVG Version: 6.00 Build 0)  -->
<!DOCTYPE svg PUBLIC "-//W3C//DTD SVG 1.1//EN" "http://www.w3.org/Graphics/SVG/1.1/DTD/svg11.dtd">
<svg version="1.1" id="Layer_1" xmlns="http://www.w3.org/2000/svg" xmlns:xlink="http://www.w3.org/1999/xlink" x="0px" y="0px"
	 width="270px" height="90px" viewBox="0 0 270 90" enable-background="new 0 0 270 90" xml:space="preserve">
<g>
	<path fill="#2A2522" d="M78.54,55.794l-0.024-1.892c1.369-0.028,2.273-0.08,2.71-0.153c0.438-0.073,0.739-0.192,0.904-0.353
		c0.248-0.233,0.45-1.082,0.606-2.539c0.157-1.458,0.26-3.406,0.31-5.839l0.149-10.709v-0.946c0-1.437-0.05-2.662-0.149-3.673
		c-0.099-1.012-0.239-1.708-0.421-2.089c-0.165-0.336-0.52-0.579-1.064-0.726c-0.544-0.146-1.37-0.22-2.476-0.22h-0.569l0.024-1.759
		c1.106,0.043,2.183,0.078,3.231,0.099c1.048,0.022,2.076,0.034,3.083,0.034c1.04,0,2.051-0.012,3.033-0.034
		c0.981-0.021,1.919-0.055,2.81-0.099c2.525,5.132,4.799,9.603,6.821,13.416c2.022,3.811,3.62,6.633,4.791,8.467
		c1.783-2.801,3.66-6.04,5.633-9.721c1.971-3.68,4.006-7.733,6.103-12.162c0.924,0.043,1.857,0.078,2.797,0.099
		c0.941,0.022,1.89,0.034,2.848,0.034c0.957,0,1.914-0.012,2.872-0.034c0.957-0.021,1.889-0.055,2.798-0.099l0.026,1.737
		c-0.135,0-0.278-0.003-0.434-0.011c-0.16-0.007-0.385-0.011-0.682-0.011c-1.256,0-2.084,0.282-2.488,0.847
		c-0.405,0.565-0.607,2.188-0.607,4.871v17.966c0,1.628,0.193,2.642,0.582,3.046c0.388,0.403,1.192,0.604,2.414,0.604
		c0.115,0,0.293-0.008,0.532-0.022c0.238-0.013,0.433-0.021,0.582-0.021l-0.024,1.892c-1.074-0.044-2.291-0.078-3.652-0.099
		c-1.362-0.023-2.859-0.033-4.494-0.033c-1.354,0-2.637,0.01-3.85,0.033c-1.213,0.021-2.356,0.055-3.429,0.099l-0.025-1.848h1.115
		c1.353,0,2.223-0.175,2.612-0.528c0.388-0.351,0.582-1.422,0.582-3.21V31.163c-4.49,8.006-7.588,13.613-9.297,16.825
		c-1.708,3.21-3.065,5.914-4.073,8.113h-1.782c-1.584-3.254-3.371-6.812-5.36-10.677c-1.989-3.862-4.551-8.727-7.687-14.591H85.67
		l0.248,18.34c0.016,0.059,0.025,0.147,0.025,0.265c0.033,3.033,0.941,4.552,2.724,4.552c0.312,0,0.557-0.004,0.729-0.01
		c0.174-0.007,0.335-0.02,0.484-0.034v1.848c-0.925-0.044-1.862-0.078-2.811-0.099c-0.95-0.023-1.903-0.033-2.86-0.033
		c-1.552,0-2.719,0.01-3.503,0.033C79.922,55.716,79.2,55.75,78.54,55.794L78.54,55.794z"/>
	<path fill="#B4691D" d="M126.175,24.026l-0.857,0.042c-0.905,0.043-1.842,0.077-2.777,0.098c-0.958,0.022-1.918,0.033-2.853,0.033
		c-0.936,0-1.887-0.011-2.828-0.033c-0.919-0.021-1.854-0.055-2.778-0.099l-0.552-0.025l-0.236,0.5
		c-2.075,4.384-4.123,8.463-6.084,12.125c-1.696,3.162-3.34,6.029-4.897,8.545c-1.073-1.777-2.436-4.223-4.062-7.289
		c-2.011-3.791-4.302-8.296-6.809-13.393L91.2,24.041l-0.544,0.027c-0.89,0.043-1.827,0.077-2.788,0.098
		c-0.983,0.022-1.998,0.033-3.015,0.033c-0.983,0-2.014-0.011-3.065-0.033c-1.024-0.021-2.105-0.055-3.215-0.099l-0.85-0.033
		l-0.012,0.851l-0.025,1.759l-0.012,0.841h1.41c1.279,0,1.936,0.104,2.261,0.191c0.284,0.077,0.484,0.185,0.535,0.291
		c0.074,0.156,0.223,0.611,0.34,1.805c0.096,0.983,0.145,2.191,0.145,3.592v0.946l-0.148,10.698
		c-0.049,2.392-0.152,4.332-0.306,5.761c-0.155,1.442-0.321,1.913-0.378,2.04c-0.052,0.027-0.181,0.078-0.445,0.124
		c-0.273,0.043-0.946,0.106-2.59,0.142l-0.822,0.018l0.011,0.822l0.025,1.89l0.011,0.875l0.873-0.058
		c0.653-0.044,1.371-0.075,2.134-0.098c0.783-0.021,1.954-0.032,3.48-0.032c0.935,0,1.891,0.012,2.841,0.032
		c0.926,0.022,1.865,0.056,2.79,0.1l0.869,0.041v-3.632l-0.91,0.09c-0.135,0.014-0.281,0.022-0.437,0.028
		c-0.166,0.009-0.398,0.011-0.695,0.011c-0.458,0-1.854,0-1.894-3.731c0-0.131-0.009-0.243-0.027-0.348l-0.207-15.323
		c2.515,4.721,4.639,8.765,6.329,12.046c1.984,3.853,3.785,7.44,5.352,10.659l0.227,0.468h2.833l0.221-0.484
		c0.995-2.175,2.358-4.889,4.051-8.07c1.5-2.817,4.098-7.532,7.735-14.036v15.867c0,2.183-0.309,2.595-0.322,2.609
		c-0.022,0.019-0.381,0.3-2.042,0.3h-1.955l0.011,0.841l0.024,1.846l0.012,0.853l0.851-0.033c1.074-0.044,2.222-0.077,3.411-0.1
		c1.217-0.021,2.507-0.032,3.835-0.032c1.605,0,3.113,0.012,4.48,0.032c1.337,0.022,2.56,0.056,3.632,0.1l0.852,0.033l0.012-0.853
		l0.023-1.89l0.012-0.841h-0.841c-0.161,0-0.372,0.009-0.633,0.023c-0.217,0.014-0.378,0.021-0.481,0.021
		c-1.408,0-1.759-0.292-1.816-0.351c-0.015-0.016-0.351-0.388-0.351-2.471V32.33c0-3.578,0.376-4.282,0.452-4.388
		c0.231-0.323,0.876-0.501,1.814-0.501c0.28,0,0.494,0.004,0.643,0.01c0.169,0.007,0.328,0.012,0.473,0.012h0.838l-0.01-0.841
		l-0.025-1.738L126.175,24.026L126.175,24.026z M125.357,24.896l0.026,1.737c-0.135,0-0.278-0.003-0.434-0.011
		c-0.16-0.007-0.385-0.011-0.682-0.011c-1.256,0-2.084,0.282-2.488,0.847c-0.405,0.565-0.607,2.188-0.607,4.871v17.966
		c0,1.628,0.193,2.642,0.582,3.046c0.388,0.403,1.192,0.604,2.414,0.604c0.115,0,0.293-0.008,0.532-0.022
		c0.238-0.013,0.433-0.021,0.582-0.021l-0.024,1.892c-1.074-0.044-2.291-0.078-3.652-0.099c-1.362-0.023-2.859-0.033-4.494-0.033
		c-1.354,0-2.637,0.01-3.85,0.033c-1.213,0.021-2.356,0.055-3.429,0.099l-0.025-1.848h1.115c1.353,0,2.223-0.175,2.612-0.528
		c0.388-0.351,0.582-1.422,0.582-3.21V31.163c-4.49,8.006-7.588,13.613-9.297,16.825c-1.708,3.21-3.065,5.914-4.073,8.113h-1.782
		c-1.584-3.254-3.371-6.812-5.36-10.677c-1.989-3.862-4.551-8.727-7.687-14.591H85.67l0.248,18.34
		c0.016,0.059,0.025,0.147,0.025,0.265c0.033,3.033,0.941,4.552,2.724,4.552c0.312,0,0.557-0.004,0.729-0.01
		c0.174-0.007,0.335-0.02,0.484-0.034v1.848c-0.925-0.044-1.862-0.078-2.811-0.099c-0.95-0.023-1.903-0.033-2.86-0.033
		c-1.552,0-2.719,0.01-3.503,0.033c-0.784,0.021-1.506,0.055-2.167,0.099l-0.024-1.892c1.369-0.028,2.273-0.08,2.71-0.153
		c0.438-0.073,0.739-0.192,0.904-0.353c0.248-0.233,0.45-1.082,0.606-2.539c0.157-1.458,0.26-3.406,0.31-5.839l0.149-10.709v-0.946
		c0-1.437-0.05-2.662-0.149-3.673c-0.099-1.012-0.239-1.708-0.421-2.089c-0.165-0.336-0.52-0.579-1.064-0.726
		c-0.544-0.146-1.37-0.22-2.476-0.22h-0.569l0.024-1.759c1.106,0.043,2.183,0.078,3.231,0.099c1.048,0.022,2.076,0.034,3.083,0.034
		c1.04,0,2.051-0.012,3.033-0.034c0.981-0.021,1.919-0.055,2.81-0.099c2.525,5.132,4.799,9.603,6.821,13.416
		c2.022,3.811,3.62,6.633,4.791,8.467c1.783-2.801,3.66-6.04,5.633-9.721c1.971-3.68,4.006-7.733,6.103-12.162
		c0.924,0.043,1.857,0.078,2.797,0.099c0.941,0.022,1.89,0.034,2.848,0.034c0.957,0,1.914-0.012,2.872-0.034
		C123.517,24.974,124.448,24.939,125.357,24.896L125.357,24.896z"/>
	<path fill="#2A2522" d="M130.336,55.794v-1.078c0.479-0.16,0.93-0.354,1.351-0.582c0.422-0.229,0.778-0.474,1.076-0.737
		c0.066-0.66,0.115-1.277,0.149-1.858c0.032-0.578,0.049-1.082,0.049-1.506V30.833c0-1.964-0.21-3.129-0.631-3.496
		c-0.422-0.366-1.598-0.58-3.528-0.638l0.025-1.804c2.656,0.043,4.988,0.078,6.993,0.099c2.006,0.022,3.661,0.034,4.964,0.034
		c0.611,0,2.062-0.012,4.357-0.034c2.294-0.021,5.381-0.055,9.26-0.099l0.62,0.637c-0.1,1.042-0.187,2.075-0.262,3.101
		c-0.073,1.027-0.136,2.046-0.186,3.058h-1.882c-0.032-0.689-0.086-1.334-0.161-1.936c-0.074-0.601-0.177-1.158-0.308-1.671
		c-0.513-0.25-1.407-0.429-2.688-0.54c-1.279-0.109-3.081-0.164-5.41-0.164c-0.361,0-0.949,0.007-1.756,0.021
		c-0.81,0.014-1.438,0.022-1.882,0.022c-0.1,0.703-0.17,1.436-0.212,2.198c-0.04,0.763-0.061,1.591-0.061,2.486v6.399h2.178
		c2.146,0,3.664-0.033,4.556-0.1c0.893-0.064,1.518-0.17,1.881-0.318c0.414-0.146,0.702-0.447,0.867-0.901
		c0.164-0.455,0.264-1.29,0.298-2.507l1.932-0.023v0.287c-0.066,2.757-0.101,4.779-0.101,6.069c0,1.027,0.005,1.786,0.014,2.276
		c0.006,0.492,0.021,0.949,0.037,1.375h-1.858c-0.065-1.085-0.198-1.885-0.396-2.397c-0.197-0.513-0.502-0.851-0.915-1.012
		c-0.444-0.176-1.259-0.306-2.438-0.384c-1.18-0.082-3.189-0.136-6.029-0.166l-0.023,12.38h2.277c2.394,0,4.456-0.049,6.188-0.154
		c1.732-0.102,2.889-0.233,3.468-0.394c0.313-0.088,0.58-0.44,0.804-1.057c0.224-0.615,0.475-1.76,0.754-3.43h1.982
		c-0.165,1.539-0.292,2.917-0.384,4.134s-0.152,2.346-0.187,3.387c-0.857,0.073-1.575,0.128-2.154,0.163
		c-0.577,0.038-1.057,0.057-1.435,0.057c-1.09,0-3.156-0.029-6.202-0.088c-3.047-0.059-5.542-0.088-7.49-0.088
		c-1.09,0-2.22,0.015-3.392,0.044C133.274,55.693,131.905,55.735,130.336,55.794L130.336,55.794z"/>
	<path fill="#B4691D" d="M128.008,24.053l-0.011,0.832l-0.025,1.803l-0.01,0.816l0.816,0.025c2.495,0.075,2.963,0.398,3.008,0.434
		c0.002,0.005,0.346,0.44,0.346,2.871v19.199c0,0.404-0.016,0.895-0.048,1.459c-0.026,0.467-0.065,0.963-0.113,1.482
		c-0.198,0.15-0.426,0.294-0.679,0.431c-0.375,0.201-0.785,0.38-1.22,0.525l-0.565,0.19v2.536l0.861-0.033
		c1.563-0.059,2.93-0.103,4.101-0.132c1.157-0.03,2.291-0.044,3.369-0.044c1.935,0,4.449,0.028,7.474,0.088
		c3.022,0.058,5.115,0.088,6.219,0.088c0.402,0,0.903-0.019,1.489-0.057c0.581-0.037,1.305-0.092,2.171-0.167l0.734-0.064
		l0.023-0.735c0.032-1.023,0.095-2.151,0.185-3.352c0.088-1.198,0.217-2.58,0.381-4.106l0.099-0.918h-3.605l-0.116,0.691
		c-0.271,1.615-0.513,2.721-0.718,3.286c-0.136,0.378-0.248,0.513-0.285,0.551c-0.376,0.098-1.248,0.236-3.254,0.354
		c-1.705,0.102-3.771,0.152-6.141,0.152h-1.446l0.02-10.712c2.388,0.032,4.118,0.083,5.146,0.153
		c1.428,0.098,1.984,0.248,2.19,0.329c0.123,0.047,0.298,0.155,0.446,0.538c0.116,0.298,0.269,0.91,0.342,2.15l0.048,0.777h3.5
		l-0.034-0.861c-0.015-0.42-0.028-0.87-0.035-1.355c-0.009-0.488-0.012-1.242-0.012-2.263c0-1.283,0.032-3.318,0.098-6.05v-0.307
		v-0.838l-0.839,0.009l-1.932,0.022l-0.796,0.01l-0.022,0.797c-0.04,1.472-0.173,2.039-0.249,2.248
		c-0.1,0.276-0.24,0.358-0.364,0.403c-0.19,0.075-0.613,0.194-1.665,0.272c-0.859,0.064-2.37,0.096-4.494,0.096h-1.349V32.11
		c0-0.882,0.021-1.704,0.061-2.441c0.025-0.481,0.064-0.956,0.115-1.418c0.333-0.004,0.721-0.01,1.163-0.018
		c0.802-0.014,1.384-0.022,1.742-0.022c2.301,0,4.096,0.054,5.34,0.162c1.044,0.09,1.672,0.214,2.051,0.329
		c0.077,0.363,0.142,0.75,0.193,1.156c0.07,0.576,0.123,1.206,0.155,1.874l0.039,0.789h3.46l0.039-0.789
		c0.048-0.994,0.11-2.016,0.186-3.038c0.071-1.014,0.158-2.051,0.258-3.082l0.036-0.381l-0.268-0.275l-0.618-0.638l-0.248-0.256
		l-0.357,0.004c-3.877,0.044-6.964,0.077-9.257,0.099c-2.291,0.022-3.741,0.033-4.351,0.033c-1.302,0-2.953-0.011-4.955-0.033
		c-2.004-0.022-4.334-0.055-6.988-0.099L128.008,24.053L128.008,24.053z M154.401,24.896l0.62,0.637
		c-0.1,1.042-0.187,2.075-0.262,3.101c-0.073,1.027-0.136,2.046-0.186,3.058h-1.882c-0.032-0.689-0.086-1.334-0.161-1.936
		c-0.074-0.601-0.177-1.158-0.308-1.671c-0.513-0.25-1.407-0.429-2.688-0.54c-1.279-0.109-3.081-0.164-5.41-0.164
		c-0.361,0-0.949,0.007-1.756,0.021c-0.81,0.014-1.438,0.022-1.882,0.022c-0.1,0.703-0.17,1.436-0.212,2.198
		c-0.04,0.763-0.061,1.591-0.061,2.486v6.399h2.178c2.146,0,3.664-0.033,4.556-0.1c0.893-0.064,1.518-0.17,1.881-0.318
		c0.414-0.146,0.702-0.447,0.867-0.901c0.164-0.455,0.264-1.29,0.298-2.507l1.932-0.023v0.287c-0.066,2.757-0.101,4.779-0.101,6.069
		c0,1.027,0.005,1.786,0.014,2.276c0.006,0.492,0.021,0.949,0.037,1.375h-1.858c-0.065-1.085-0.198-1.885-0.396-2.397
		c-0.197-0.513-0.502-0.851-0.915-1.012c-0.444-0.176-1.259-0.306-2.438-0.384c-1.18-0.082-3.189-0.136-6.029-0.166l-0.023,12.38
		h2.277c2.394,0,4.456-0.049,6.188-0.154c1.732-0.102,2.889-0.233,3.468-0.394c0.313-0.088,0.58-0.44,0.804-1.057
		c0.224-0.615,0.475-1.76,0.754-3.43h1.982c-0.165,1.539-0.292,2.917-0.384,4.134s-0.152,2.346-0.187,3.387
		c-0.857,0.073-1.575,0.128-2.154,0.163c-0.577,0.038-1.057,0.057-1.435,0.057c-1.09,0-3.156-0.029-6.202-0.088
		c-3.047-0.059-5.542-0.088-7.49-0.088c-1.09,0-2.22,0.015-3.392,0.044c-1.172,0.031-2.541,0.073-4.11,0.132v-1.078
		c0.479-0.16,0.93-0.354,1.351-0.582c0.422-0.229,0.778-0.474,1.076-0.737c0.066-0.66,0.115-1.277,0.149-1.858
		c0.032-0.578,0.049-1.082,0.049-1.506V30.833c0-1.964-0.21-3.129-0.631-3.496c-0.422-0.366-1.598-0.58-3.528-0.638l0.025-1.804
		c2.656,0.043,4.988,0.078,6.993,0.099c2.006,0.022,3.661,0.034,4.964,0.034c0.611,0,2.062-0.012,4.357-0.034
		C147.436,24.974,150.522,24.939,154.401,24.896L154.401,24.896z"/>
	<path fill="#2A2522" d="M166.789,55.794v-1.892c1.931,0,3.16-0.179,3.689-0.539c0.527-0.358,0.794-1.226,0.794-2.605V44.71
		c0-1.26-0.381-2.471-1.14-3.628c-0.083-0.117-0.142-0.206-0.175-0.265c-2.062-3.342-3.958-6.088-5.682-8.234
		c-1.725-2.149-3.322-3.75-4.791-4.806l-2.179-0.308v-1.495c1.733-0.206,3.446-0.495,5.138-0.869s2.588-0.561,2.687-0.561
		c1.09,0,2.586,1.24,4.493,3.717c1.905,2.478,4.23,6.208,6.968,11.194c1.915-2.698,3.632-5.243,5.151-7.632
		c1.519-2.389,2.87-4.691,4.061-6.905c0.229,0,0.485,0.004,0.768,0.012c0.281,0.007,0.718,0.01,1.312,0.01
		c0.628,0,1.11,0,1.448-0.005c0.339-0.003,0.648-0.009,0.928-0.016l-0.196,1.144c-2.542,2.786-4.794,5.495-6.76,8.126
		c-1.966,2.632-3.424,4.863-4.383,6.696c-0.197,0.367-0.342,0.773-0.432,1.22c-0.092,0.448-0.136,1.061-0.136,1.838v6.311
		c0,1.788,0.233,2.845,0.703,3.166c0.473,0.323,1.688,0.484,3.652,0.484v1.892c-0.873-0.059-1.956-0.101-3.242-0.132
		c-1.288-0.029-2.874-0.044-4.754-0.044c-2.476,0-4.23,0.015-5.263,0.044C168.419,55.693,167.532,55.735,166.789,55.794
		L166.789,55.794z"/>
	<path fill="#B4691D" d="M165.131,23.715c-0.129,0-0.24,0-2.865,0.581c-1.653,0.365-3.354,0.652-5.057,0.855l-0.73,0.086v2.952
		l0.712,0.101l1.973,0.279c1.359,1.009,2.86,2.533,4.467,4.532c1.697,2.113,3.589,4.856,5.623,8.151
		c0.021,0.043,0.095,0.157,0.202,0.307c0.657,1.008,0.986,2.047,0.986,3.15v6.048c0,1.551-0.357,1.872-0.429,1.92
		c-0.137,0.092-0.773,0.396-3.224,0.396h-0.829v3.618l0.895-0.072c0.72-0.055,1.601-0.099,2.62-0.128
		c1.019-0.03,2.78-0.044,5.237-0.044c1.867,0,3.459,0.014,4.735,0.044c1.275,0.029,2.354,0.073,3.207,0.13l0.885,0.06v-3.607h-0.831
		c-2.559,0-3.101-0.281-3.184-0.339c0-0.003-0.343-0.374-0.343-2.482v-6.311c0-0.72,0.04-1.28,0.118-1.673
		c0.074-0.364,0.193-0.697,0.35-0.99c0.937-1.794,2.389-4.012,4.318-6.596c1.94-2.598,4.195-5.31,6.707-8.062l0.163-0.179
		l0.041-0.239l0.197-1.144l0.172-0.997l-1.011,0.026c-0.276,0.008-0.579,0.013-0.915,0.017c-0.338,0.004-0.816,0.005-1.439,0.005
		c-0.584,0-1.014-0.003-1.289-0.01c-0.292-0.007-0.554-0.012-0.79-0.012h-0.496l-0.235,0.437c-1.169,2.179-2.525,4.484-4.029,6.853
		c-1.3,2.046-2.768,4.234-4.366,6.517c-2.471-4.425-4.622-7.832-6.396-10.14C168.159,24.999,166.523,23.715,165.131,23.715
		L165.131,23.715z M165.131,24.544c1.09,0,2.586,1.24,4.493,3.717c1.905,2.478,4.23,6.208,6.968,11.194
		c1.915-2.698,3.632-5.243,5.151-7.632c1.519-2.389,2.87-4.691,4.061-6.905c0.229,0,0.485,0.004,0.768,0.012
		c0.281,0.007,0.718,0.01,1.312,0.01c0.628,0,1.11,0,1.448-0.005c0.339-0.003,0.648-0.009,0.928-0.016l-0.196,1.144
		c-2.542,2.786-4.794,5.495-6.76,8.126c-1.966,2.632-3.424,4.863-4.383,6.696c-0.197,0.367-0.342,0.773-0.432,1.22
		c-0.092,0.448-0.136,1.061-0.136,1.838v6.311c0,1.788,0.233,2.845,0.703,3.166c0.473,0.323,1.688,0.484,3.652,0.484v1.892
		c-0.873-0.059-1.956-0.101-3.242-0.132c-1.288-0.029-2.874-0.044-4.754-0.044c-2.476,0-4.23,0.015-5.263,0.044
		c-1.03,0.031-1.917,0.073-2.66,0.132v-1.892c1.931,0,3.16-0.179,3.689-0.539c0.527-0.358,0.794-1.226,0.794-2.605V44.71
		c0-1.26-0.381-2.471-1.14-3.628c-0.083-0.117-0.142-0.206-0.175-0.265c-2.062-3.342-3.958-6.088-5.682-8.234
		c-1.725-2.149-3.322-3.75-4.791-4.806l-2.179-0.308v-1.495c1.733-0.206,3.446-0.495,5.138-0.869S165.032,24.544,165.131,24.544
		L165.131,24.544z"/>
	<path fill="#2A2522" d="M194.097,55.794v-1.078c0.479-0.16,0.928-0.354,1.349-0.582c0.422-0.229,0.78-0.474,1.078-0.737
		c0.066-0.66,0.114-1.277,0.149-1.858c0.031-0.578,0.049-1.082,0.049-1.506V30.833c0-1.964-0.21-3.129-0.632-3.496
		c-0.421-0.366-1.597-0.58-3.528-0.638l0.026-1.804c2.656,0.043,4.988,0.078,6.993,0.099c2.006,0.022,3.661,0.034,4.964,0.034
		c0.611,0,2.063-0.012,4.357-0.034c2.293-0.021,5.381-0.055,9.26-0.099l0.62,0.637c-0.1,1.042-0.188,2.075-0.261,3.101
		c-0.075,1.027-0.136,2.046-0.187,3.058h-1.882c-0.032-0.689-0.086-1.334-0.161-1.936c-0.073-0.601-0.178-1.158-0.309-1.671
		c-0.512-0.25-1.407-0.429-2.687-0.54c-1.279-0.109-3.081-0.164-5.41-0.164c-0.361,0-0.947,0.007-1.758,0.021
		c-0.808,0.014-1.436,0.022-1.88,0.022c-0.1,0.703-0.171,1.436-0.21,2.198c-0.042,0.763-0.064,1.591-0.064,2.486v6.399h2.18
		c2.146,0,3.664-0.033,4.556-0.1c0.892-0.064,1.518-0.17,1.882-0.318c0.413-0.146,0.701-0.447,0.866-0.901
		c0.164-0.455,0.264-1.29,0.296-2.507l1.933-0.023v0.287c-0.067,2.757-0.1,4.779-0.1,6.069c0,1.027,0.005,1.786,0.014,2.276
		c0.008,0.492,0.019,0.949,0.037,1.375h-1.857c-0.066-1.085-0.198-1.885-0.396-2.397s-0.503-0.851-0.916-1.012
		c-0.444-0.176-1.259-0.306-2.438-0.384c-1.181-0.082-3.189-0.136-6.029-0.166l-0.025,12.38h2.279c2.393,0,4.456-0.049,6.188-0.154
		c1.733-0.102,2.889-0.233,3.466-0.394c0.314-0.088,0.582-0.44,0.805-1.057c0.223-0.615,0.475-1.76,0.756-3.43h1.981
		c-0.166,1.539-0.295,2.917-0.384,4.134c-0.092,1.217-0.152,2.346-0.187,3.387c-0.858,0.073-1.575,0.128-2.154,0.163
		c-0.577,0.038-1.057,0.057-1.435,0.057c-1.09,0-3.158-0.029-6.202-0.088c-3.045-0.059-5.542-0.088-7.49-0.088
		c-1.088,0-2.221,0.015-3.392,0.044C197.034,55.693,195.666,55.735,194.097,55.794L194.097,55.794z"/>
	<path fill="#B4691D" d="M191.771,24.053l-0.012,0.832l-0.025,1.803l-0.013,0.816l0.815,0.025c2.498,0.075,2.966,0.398,3.011,0.435
		c0.002,0.005,0.345,0.44,0.345,2.87v19.199c0,0.402-0.015,0.882-0.048,1.46c-0.027,0.467-0.064,0.965-0.112,1.481
		c-0.2,0.15-0.426,0.294-0.678,0.431c-0.378,0.203-0.788,0.38-1.221,0.525l-0.565,0.19v2.536l0.861-0.033
		c1.564-0.059,2.93-0.103,4.099-0.132c1.159-0.03,2.293-0.044,3.371-0.044c1.934,0,4.447,0.028,7.475,0.088
		c3.021,0.058,5.112,0.088,6.218,0.088c0.402,0,0.905-0.019,1.488-0.057c0.581-0.037,1.305-0.092,2.172-0.167l0.734-0.064
		l0.024-0.735c0.031-1.029,0.094-2.157,0.182-3.352c0.09-1.202,0.219-2.584,0.383-4.106l0.099-0.918h-3.605l-0.117,0.691
		c-0.336,2.01-0.575,2.897-0.717,3.286c-0.136,0.378-0.248,0.513-0.286,0.551c-0.374,0.098-1.246,0.236-3.254,0.354
		c-1.704,0.102-3.771,0.152-6.14,0.152h-1.446l0.02-10.712c2.388,0.032,4.117,0.083,5.145,0.153
		c1.427,0.098,1.987,0.248,2.191,0.329c0.122,0.047,0.298,0.155,0.448,0.54c0.114,0.295,0.265,0.908,0.34,2.148l0.048,0.777h3.501
		l-0.035-0.861c-0.017-0.42-0.029-0.871-0.035-1.355c-0.009-0.487-0.014-1.242-0.014-2.263c0-1.3,0.034-3.335,0.1-6.05v-0.307
		v-0.838l-0.839,0.009l-1.932,0.022l-0.799,0.01l-0.021,0.797c-0.04,1.473-0.172,2.041-0.246,2.248
		c-0.102,0.276-0.242,0.358-0.366,0.403c-0.19,0.075-0.613,0.194-1.665,0.272c-0.861,0.064-2.372,0.096-4.494,0.096h-1.351V32.11
		c0-0.871,0.022-1.692,0.062-2.441c0.025-0.482,0.062-0.957,0.115-1.418c0.333-0.004,0.721-0.01,1.162-0.018
		c0.803-0.014,1.383-0.022,1.743-0.022c2.3,0,4.096,0.054,5.339,0.162c1.045,0.09,1.672,0.214,2.052,0.329
		c0.077,0.362,0.142,0.75,0.193,1.157c0.07,0.575,0.123,1.206,0.154,1.874l0.038,0.789h3.461l0.04-0.788
		c0.051-1.022,0.112-2.045,0.185-3.038c0.072-1.015,0.161-2.051,0.257-3.082l0.038-0.382l-0.268-0.276l-0.62-0.637l-0.246-0.256
		l-0.357,0.004c-3.878,0.044-6.964,0.077-9.259,0.099c-2.289,0.022-3.739,0.033-4.349,0.033c-1.302,0-2.953-0.011-4.955-0.033
		c-2.004-0.022-4.334-0.055-6.989-0.099L191.771,24.053L191.771,24.053z M218.162,24.896l0.62,0.637
		c-0.1,1.042-0.188,2.075-0.261,3.101c-0.075,1.027-0.136,2.046-0.187,3.058h-1.882c-0.032-0.689-0.086-1.334-0.161-1.936
		c-0.073-0.601-0.178-1.158-0.309-1.671c-0.512-0.25-1.407-0.429-2.687-0.54c-1.279-0.109-3.081-0.164-5.41-0.164
		c-0.361,0-0.947,0.007-1.758,0.021c-0.808,0.014-1.436,0.022-1.88,0.022c-0.1,0.703-0.171,1.436-0.21,2.198
		c-0.042,0.763-0.064,1.591-0.064,2.486v6.399h2.18c2.146,0,3.664-0.033,4.556-0.1c0.892-0.064,1.518-0.17,1.882-0.318
		c0.413-0.146,0.701-0.447,0.866-0.901c0.164-0.455,0.264-1.29,0.296-2.507l1.933-0.023v0.287c-0.067,2.757-0.1,4.779-0.1,6.069
		c0,1.027,0.005,1.786,0.014,2.276c0.008,0.492,0.019,0.949,0.037,1.375h-1.857c-0.066-1.085-0.198-1.885-0.396-2.397
		s-0.503-0.851-0.916-1.012c-0.444-0.176-1.259-0.306-2.438-0.384c-1.181-0.082-3.189-0.136-6.029-0.166l-0.025,12.38h2.279
		c2.393,0,4.456-0.049,6.188-0.154c1.733-0.102,2.889-0.233,3.466-0.394c0.314-0.088,0.582-0.44,0.805-1.057
		c0.223-0.615,0.475-1.76,0.756-3.43h1.981c-0.166,1.539-0.295,2.917-0.384,4.134c-0.092,1.217-0.152,2.346-0.187,3.387
		c-0.858,0.073-1.575,0.128-2.154,0.163c-0.577,0.038-1.057,0.057-1.435,0.057c-1.09,0-3.158-0.029-6.202-0.088
		c-3.045-0.059-5.542-0.088-7.49-0.088c-1.088,0-2.221,0.015-3.392,0.044c-1.173,0.031-2.541,0.073-4.11,0.132v-1.078
		c0.479-0.16,0.928-0.354,1.349-0.582c0.422-0.229,0.78-0.474,1.078-0.737c0.066-0.66,0.114-1.277,0.149-1.858
		c0.031-0.578,0.049-1.082,0.049-1.506V30.833c0-1.964-0.21-3.129-0.632-3.496c-0.421-0.366-1.597-0.58-3.528-0.638l0.026-1.804
		c2.656,0.043,4.988,0.078,6.993,0.099c2.006,0.022,3.661,0.034,4.964,0.034c0.611,0,2.063-0.012,4.357-0.034
		C211.195,24.974,214.283,24.939,218.162,24.896L218.162,24.896z"/>
	<path fill="#2A2522" d="M223.03,55.794v-1.892c1.071,0,1.874-0.032,2.401-0.099c0.528-0.065,0.858-0.164,0.99-0.296
		c0.247-0.235,0.431-1.111,0.545-2.629c0.115-1.518,0.175-4.007,0.175-7.466V31.12c0-1.349-0.043-2.28-0.126-2.793
		c-0.081-0.512-0.215-0.843-0.396-0.989c-0.232-0.206-0.643-0.363-1.239-0.473c-0.594-0.109-1.377-0.179-2.351-0.209v-1.759
		c0.957,0.059,1.994,0.103,3.107,0.133c1.113,0.029,2.355,0.043,3.727,0.043c1.418,0,3.316-0.029,5.692-0.088
		c2.378-0.059,4.028-0.088,4.954-0.088c4.01,0,6.849,0.495,8.515,1.484c1.667,0.99,2.502,2.643,2.502,4.96
		c0,1.758-0.648,3.334-1.943,4.728c-1.297,1.392-3.182,2.552-5.657,3.474l7.799,10.534c0.131,0.176,0.312,0.426,0.544,0.748
		c1.534,2.081,2.856,3.122,3.962,3.122h0.271l-0.025,1.848c-1.088-0.044-2.038-0.078-2.846-0.099
		c-0.811-0.023-1.462-0.033-1.956-0.033c-0.645,0-1.31,0.015-1.993,0.044c-0.686,0.029-1.375,0.072-2.066,0.132l-9.013-12.294
		c-0.463-0.629-0.925-1.219-1.387-1.769c-0.462-0.552-0.933-1.075-1.411-1.573l0.347-0.857h0.147c2.443,0,4.392-0.594,5.843-1.781
		c1.452-1.188,2.18-2.764,2.18-4.729c0-1.672-0.602-3.005-1.807-4.002c-1.207-0.997-2.814-1.496-4.828-1.496
		c-0.594,0-1.147,0.015-1.66,0.045c-0.511,0.028-1.007,0.072-1.484,0.131c-0.083,0.719-0.149,1.43-0.199,2.133
		c-0.049,0.704-0.073,1.385-0.073,2.045v18.34c0,1.861,0.202,2.973,0.608,3.331c0.402,0.36,1.323,0.539,2.758,0.539h0.794v1.892
		c-1.321-0.044-2.616-0.078-3.888-0.099c-1.272-0.023-2.509-0.033-3.714-0.033c-1.09,0-2.281,0.01-3.578,0.033
		C225.955,55.716,224.549,55.75,223.03,55.794L223.03,55.794z"/>
	<path fill="#B4691D" d="M235.296,28.267c0.254-0.023,0.515-0.042,0.779-0.058c0.504-0.029,1.046-0.043,1.612-0.043
		c1.806,0,3.253,0.439,4.299,1.305c1.013,0.839,1.507,1.939,1.507,3.363c0,1.719-0.613,3.055-1.874,4.086
		c-1.294,1.058-3.084,1.594-5.319,1.594h-0.708l-0.208,0.52l-0.284,0.7v-8.042c0-0.642,0.023-1.31,0.073-1.987
		C235.204,29.235,235.246,28.753,235.296,28.267L235.296,28.267z M222.202,24.014v3.445l0.803,0.025
		c0.928,0.029,1.678,0.095,2.228,0.195c0.587,0.11,0.787,0.239,0.831,0.272c0.021,0.042,0.081,0.178,0.133,0.507
		c0.054,0.321,0.116,1.044,0.116,2.661v12.293c0,3.415-0.06,5.906-0.173,7.402c-0.104,1.367-0.242,1.89-0.309,2.071
		c-0.083,0.025-0.236,0.062-0.5,0.093c-0.494,0.062-1.267,0.094-2.301,0.094h-0.828v3.573l0.853-0.023
		c1.514-0.044,2.917-0.075,4.21-0.1c1.302-0.021,2.502-0.032,3.564-0.032c1.18,0,2.423,0.012,3.699,0.032
		c1.243,0.022,2.547,0.056,3.875,0.1l0.856,0.027v-3.577h-1.623c-1.787,0-2.17-0.295-2.208-0.329
		c-0.002-0.006-0.329-0.426-0.329-2.712v-9.368l0.106,0.111c0.468,0.487,0.93,1.001,1.376,1.533
		c0.448,0.532,0.904,1.115,1.353,1.727l9.012,12.294l0.275,0.373l0.463-0.038c0.673-0.056,1.356-0.1,2.034-0.131
		c0.669-0.027,1.327-0.042,1.957-0.042c0.489,0,1.134,0.012,1.935,0.032c0.806,0.024,1.75,0.056,2.834,0.1l0.851,0.033l0.013-0.853
		l0.025-1.846l0.012-0.841h-1.113c-0.464,0-1.508-0.36-3.295-2.786c-0.229-0.317-0.413-0.571-0.547-0.753l-7.156-9.665
		c2.101-0.897,3.766-2,4.958-3.281c1.437-1.545,2.164-3.326,2.164-5.292c0-2.619-0.978-4.528-2.905-5.672
		c-1.815-1.077-4.74-1.602-8.939-1.602c-0.938,0-2.611,0.031-4.974,0.089c-2.357,0.058-4.267,0.087-5.673,0.087
		c-1.357,0-2.604-0.015-3.706-0.043c-1.106-0.029-2.143-0.073-3.076-0.131L222.202,24.014L222.202,24.014z M240.511,24.896
		c4.01,0,6.849,0.495,8.515,1.484c1.667,0.99,2.502,2.643,2.502,4.96c0,1.758-0.648,3.334-1.943,4.728
		c-1.297,1.392-3.182,2.552-5.657,3.474l7.799,10.534c0.131,0.176,0.312,0.426,0.544,0.748c1.534,2.081,2.856,3.122,3.962,3.122
		h0.271l-0.025,1.848c-1.088-0.044-2.038-0.078-2.846-0.099c-0.811-0.023-1.462-0.033-1.956-0.033c-0.645,0-1.31,0.015-1.993,0.044
		c-0.686,0.029-1.375,0.072-2.066,0.132l-9.013-12.294c-0.463-0.629-0.925-1.219-1.387-1.769c-0.462-0.552-0.933-1.075-1.411-1.573
		l0.347-0.857h0.147c2.443,0,4.392-0.594,5.843-1.781c1.452-1.188,2.18-2.764,2.18-4.729c0-1.672-0.602-3.005-1.807-4.002
		c-1.207-0.997-2.814-1.496-4.828-1.496c-0.594,0-1.147,0.015-1.66,0.045c-0.511,0.028-1.007,0.072-1.484,0.131
		c-0.083,0.719-0.149,1.43-0.199,2.133c-0.049,0.704-0.073,1.385-0.073,2.045v18.34c0,1.861,0.202,2.973,0.608,3.331
		c0.402,0.36,1.323,0.539,2.758,0.539h0.794v1.892c-1.321-0.044-2.616-0.078-3.888-0.099c-1.272-0.023-2.509-0.033-3.714-0.033
		c-1.09,0-2.281,0.01-3.578,0.033c-1.296,0.021-2.702,0.055-4.221,0.099v-1.892c1.071,0,1.874-0.032,2.401-0.099
		c0.528-0.065,0.858-0.164,0.99-0.296c0.247-0.235,0.431-1.111,0.545-2.629c0.115-1.518,0.175-4.007,0.175-7.466V31.12
		c0-1.349-0.043-2.28-0.126-2.793c-0.081-0.512-0.215-0.843-0.396-0.989c-0.232-0.206-0.643-0.363-1.239-0.473
		c-0.594-0.109-1.377-0.179-2.351-0.209v-1.759c0.957,0.059,1.994,0.103,3.107,0.133c1.113,0.029,2.355,0.043,3.727,0.043
		c1.418,0,3.316-0.029,5.692-0.088C237.935,24.925,239.585,24.896,240.511,24.896L240.511,24.896z"/>
	<path fill="#B4691D" d="M87.811,62.213c-0.846-0.288-2.04-0.573-2.896-0.573c-2.028,0-3.105,1.049-3.105,2.655
		c0,1.527,1.204,2.479,3.095,2.479c1.12,0,2.325-0.328,3.19-0.625l-0.053,1.586c-0.761,0.308-2.176,0.524-3.729,0.524
		c-2.917,0-4.955-1.347-4.955-3.864c0-2.876,1.965-4.185,4.997-4.185c1.078,0,2.567,0.198,3.328,0.426L87.811,62.213L87.811,62.213z
		"/>
	<path fill="#B4691D" d="M101.405,62.054c-1.563,0-2.525,0.655-2.525,2.183c0,1.526,0.962,2.18,2.525,2.18
		c1.564,0,2.525-0.653,2.525-2.18C103.931,62.709,102.969,62.054,101.405,62.054L101.405,62.054z M96.429,64.236
		c0-2.956,2.092-4.026,4.976-4.026c2.885,0,4.976,1.07,4.976,4.026c0,2.953-2.091,4.022-4.976,4.022
		C98.521,68.259,96.429,67.189,96.429,64.236L96.429,64.236z"/>
	<polygon fill="#B4691D" points="121.116,65.285 121.137,65.285 121.137,60.35 123.377,60.35 123.377,68.12 120.799,68.12 
		116.985,63.264 116.964,63.264 116.964,68.12 114.724,68.12 114.724,60.35 117.259,60.35 121.116,65.285 	"/>
	<polygon fill="#B4691D" points="134.69,68.12 134.69,61.915 131.976,61.915 131.976,60.35 139.92,60.35 139.92,61.915 
		137.206,61.915 137.206,68.12 134.69,68.12 	"/>
	<path fill="#B4691D" d="M150.87,63.878h1.479c1.754,0,2.261-0.337,2.261-1.189c0-0.674-0.507-1.069-1.605-1.069h-2.134V63.878
		L150.87,63.878z M148.418,68.12V60.35h5.642c2.029,0,3.001,0.871,3.001,2.092c0,1.605-1.215,1.824-2.578,2.112v0.021
		c0.708,0.186,1.532,0.504,2.007,1.267l1.428,2.279h-2.874l-1.416-2.496c-0.18-0.318-0.466-0.477-0.814-0.477h-1.942v2.973H148.418
		L148.418,68.12z"/>
	<path fill="#B4691D" d="M170.583,62.748l-1.668,2.896h3.243L170.583,62.748L170.583,62.748z M176.14,68.12h-2.651l-0.665-1.249
		l-4.628,0.011l-0.687,1.238h-2.336l4.618-7.771h1.986L176.14,68.12L176.14,68.12z"/>
	<path fill="#B4691D" d="M192.075,62.213c-0.845-0.288-2.038-0.573-2.895-0.573c-2.026,0-3.105,1.049-3.105,2.655
		c0,1.527,1.204,2.479,3.095,2.479c1.121,0,2.324-0.328,3.19-0.625l-0.052,1.586c-0.763,0.308-2.177,0.524-3.73,0.524
		c-2.916,0-4.954-1.347-4.954-3.864c0-2.876,1.964-4.185,4.997-4.185c1.078,0,2.566,0.198,3.329,0.426L192.075,62.213
		L192.075,62.213z"/>
	<polygon fill="#B4691D" points="203.132,68.12 203.132,61.915 200.417,61.915 200.417,60.35 208.361,60.35 208.361,61.915 
		205.646,61.915 205.646,68.12 203.132,68.12 	"/>
	<polygon fill="#B4691D" points="217.286,68.12 219.8,68.12 219.8,60.35 217.286,60.35 217.286,68.12 	"/>
	<polygon fill="#B4691D" points="235.572,65.285 235.594,65.285 235.594,60.35 237.835,60.35 237.835,68.12 235.256,68.12 
		231.441,63.264 231.421,63.264 231.421,68.12 229.181,68.12 229.181,60.35 231.717,60.35 235.572,65.285 	"/>
	<path fill="#B4691D" d="M255.182,62.134c-1.099-0.269-2.218-0.494-3.243-0.494c-1.881,0-3.295,0.93-3.295,2.636
		c0,1.616,1.308,2.498,3.03,2.498c0.646,0,1.321-0.059,1.933-0.309v-1.079h-1.539v-1.429h3.633v3.769
		c-1.353,0.366-2.757,0.533-4.142,0.533c-2.915,0-5.367-0.86-5.367-3.864c0-2.826,2.25-4.185,5.24-4.185
		c1.13,0,2.366,0.149,3.56,0.446L255.182,62.134L255.182,62.134z"/>
	<g>
		<defs>
			<path id="SVGID_1_" d="M71.134,45.987c0,16.642-13.491,30.134-30.133,30.134c-16.643,0-30.134-13.492-30.134-30.134
				c0-16.643,13.492-30.134,30.134-30.134C57.643,15.854,71.134,29.344,71.134,45.987L71.134,45.987z"/>
		</defs>
		<clipPath id="SVGID_2_">
			<use xlink:href="#SVGID_1_"  overflow="visible"/>
		</clipPath>
		<polygon clip-path="url(#SVGID_2_)" fill-rule="evenodd" clip-rule="evenodd" fill="#724314" points="9.435,75.66 70.673,77.553 
			72.566,16.315 11.328,14.422 9.435,75.66 		"/>
		<path clip-path="url(#SVGID_2_)" fill-rule="evenodd" clip-rule="evenodd" fill="#B09270" d="M35.309,31.691
			c-0.01,0.311-0.27,0.555-0.581,0.545c-0.311-0.009-0.556-0.27-0.546-0.581c0.01-0.311,0.27-0.556,0.581-0.546
			S35.318,31.38,35.309,31.691L35.309,31.691z"/>
		<path clip-path="url(#SVGID_2_)" fill-rule="evenodd" clip-rule="evenodd" fill="#AF9170" d="M35.121,31.686
			c0.006-0.208-0.157-0.381-0.364-0.388c-0.208-0.006-0.381,0.157-0.387,0.364c-0.006,0.207,0.156,0.381,0.364,0.387
			C34.941,32.056,35.114,31.893,35.121,31.686L35.121,31.686z M35.685,31.703c-0.016,0.519-0.449,0.925-0.968,0.911
			c-0.519-0.017-0.926-0.45-0.91-0.969c0.016-0.519,0.449-0.926,0.968-0.91C35.293,30.75,35.701,31.184,35.685,31.703L35.685,31.703
			z"/>
		<path clip-path="url(#SVGID_2_)" fill-rule="evenodd" clip-rule="evenodd" fill="#AF9170" d="M35.497,31.697
			c0.013-0.415-0.313-0.761-0.728-0.774c-0.415-0.013-0.762,0.313-0.774,0.728c-0.014,0.416,0.313,0.762,0.728,0.775
			C35.137,32.438,35.484,32.112,35.497,31.697L35.497,31.697z M36.06,31.714c-0.022,0.726-0.629,1.296-1.355,1.274
			c-0.726-0.022-1.297-0.629-1.274-1.355c0.022-0.726,0.629-1.296,1.355-1.274C35.512,30.381,36.083,30.988,36.06,31.714
			L36.06,31.714z"/>
		<path clip-path="url(#SVGID_2_)" fill-rule="evenodd" clip-rule="evenodd" fill="#AF9170" d="M35.872,31.708
			c0.02-0.623-0.47-1.143-1.092-1.162c-0.623-0.02-1.143,0.47-1.162,1.092c-0.019,0.623,0.47,1.143,1.092,1.162
			C35.333,32.819,35.853,32.331,35.872,31.708L35.872,31.708z M36.436,31.726c-0.029,0.933-0.809,1.667-1.743,1.639
			c-0.933-0.03-1.667-0.81-1.638-1.744c0.029-0.933,0.809-1.667,1.743-1.638C35.731,30.012,36.464,30.792,36.436,31.726
			L36.436,31.726z"/>
		<path clip-path="url(#SVGID_2_)" fill-rule="evenodd" clip-rule="evenodd" fill="#AF9170" d="M36.248,31.72
			c0.026-0.829-0.626-1.523-1.456-1.548c-0.83-0.026-1.523,0.626-1.55,1.456c-0.025,0.83,0.627,1.524,1.457,1.549
			C35.529,33.202,36.222,32.55,36.248,31.72L36.248,31.72z M36.811,31.738c-0.035,1.141-0.989,2.038-2.129,2.001
			c-1.141-0.034-2.038-0.988-2.002-2.129c0.036-1.142,0.989-2.038,2.13-2.002C35.95,29.643,36.847,30.596,36.811,31.738
			L36.811,31.738z"/>
		<path clip-path="url(#SVGID_2_)" fill-rule="evenodd" clip-rule="evenodd" fill="#AF9170" d="M36.624,31.732
			c0.032-1.038-0.783-1.904-1.82-1.937s-1.904,0.783-1.937,1.82s0.783,1.905,1.82,1.937C35.725,33.584,36.591,32.769,36.624,31.732
			L36.624,31.732z M37.188,31.75c-0.042,1.349-1.169,2.408-2.518,2.366s-2.408-1.168-2.367-2.517
			c0.042-1.348,1.169-2.408,2.518-2.366S37.229,30.401,37.188,31.75L37.188,31.75z"/>
		<path clip-path="url(#SVGID_2_)" fill-rule="evenodd" clip-rule="evenodd" fill="#AF9170" d="M36.999,31.743
			c0.039-1.245-0.939-2.285-2.185-2.323c-1.244-0.039-2.285,0.939-2.323,2.184c-0.039,1.245,0.939,2.286,2.184,2.324
			C35.92,33.966,36.961,32.988,36.999,31.743L36.999,31.743z M37.563,31.76c-0.048,1.557-1.349,2.78-2.905,2.731
			s-2.779-1.349-2.73-2.904c0.048-1.556,1.349-2.779,2.904-2.73C36.388,28.904,37.611,30.205,37.563,31.76L37.563,31.76z"/>
		<path clip-path="url(#SVGID_2_)" fill-rule="evenodd" clip-rule="evenodd" fill="#AF9170" d="M37.375,31.755
			c0.045-1.453-1.096-2.667-2.549-2.711c-1.452-0.044-2.666,1.097-2.71,2.549c-0.045,1.451,1.096,2.666,2.548,2.711
			S37.33,33.208,37.375,31.755L37.375,31.755z M37.938,31.772c-0.054,1.764-1.529,3.149-3.292,3.094
			c-1.764-0.055-3.149-1.527-3.095-3.291c0.055-1.763,1.529-3.149,3.292-3.095S37.993,30.009,37.938,31.772L37.938,31.772z"/>
		<path clip-path="url(#SVGID_2_)" fill-rule="evenodd" clip-rule="evenodd" fill="#AF9170" d="M37.75,31.767
			c0.051-1.66-1.252-3.047-2.913-3.098c-1.66-0.052-3.047,1.252-3.098,2.912c-0.051,1.661,1.253,3.047,2.913,3.098
			C36.312,34.73,37.699,33.426,37.75,31.767L37.75,31.767z M38.314,31.784c-0.061,1.971-1.708,3.52-3.679,3.458
			c-1.971-0.061-3.52-1.708-3.458-3.679c0.061-1.971,1.708-3.52,3.68-3.458C36.826,28.166,38.375,29.813,38.314,31.784
			L38.314,31.784z"/>
		<path clip-path="url(#SVGID_2_)" fill-rule="evenodd" clip-rule="evenodd" fill="#AF9170" d="M38.126,31.778
			c0.058-1.868-1.409-3.428-3.277-3.485c-1.867-0.058-3.428,1.409-3.485,3.276c-0.058,1.868,1.409,3.428,3.277,3.486
			C36.508,35.112,38.068,33.646,38.126,31.778L38.126,31.778z M38.689,31.796c-0.067,2.178-1.888,3.889-4.066,3.822
			c-2.178-0.066-3.89-1.888-3.822-4.066c0.067-2.178,1.888-3.89,4.066-3.823C37.045,27.796,38.757,29.617,38.689,31.796
			L38.689,31.796z"/>
		<path clip-path="url(#SVGID_2_)" fill-rule="evenodd" clip-rule="evenodd" fill="#AF9170" d="M38.502,31.79
			c0.064-2.075-1.566-3.809-3.64-3.873c-2.075-0.064-3.809,1.565-3.873,3.64c-0.064,2.075,1.566,3.809,3.64,3.874
			C36.704,35.495,38.438,33.864,38.502,31.79L38.502,31.79z M39.065,31.807c-0.074,2.386-2.068,4.26-4.454,4.186
			c-2.386-0.072-4.26-2.066-4.186-4.453c0.074-2.385,2.067-4.26,4.453-4.187C37.265,27.427,39.139,29.421,39.065,31.807
			L39.065,31.807z"/>
		<path clip-path="url(#SVGID_2_)" fill-rule="evenodd" clip-rule="evenodd" fill="#AF9170" d="M38.877,31.802
			c0.07-2.282-1.722-4.19-4.004-4.26c-2.282-0.071-4.19,1.722-4.26,4.005c-0.071,2.283,1.722,4.189,4.004,4.259
			S38.807,34.084,38.877,31.802L38.877,31.802z M39.441,31.819c-0.08,2.594-2.248,4.631-4.841,4.551
			c-2.594-0.081-4.631-2.248-4.551-4.841s2.248-4.631,4.841-4.551C37.484,27.059,39.521,29.225,39.441,31.819L39.441,31.819z"/>
		<path clip-path="url(#SVGID_2_)" fill-rule="evenodd" clip-rule="evenodd" fill="#AF9170" d="M39.253,31.813
			c0.076-2.49-1.879-4.57-4.369-4.647c-2.49-0.077-4.571,1.879-4.647,4.369s1.879,4.57,4.369,4.647S39.176,34.302,39.253,31.813
			L39.253,31.813z M39.816,31.831c-0.086,2.799-2.427,5.002-5.228,4.915c-2.801-0.087-5.001-2.428-4.915-5.228
			c0.086-2.801,2.427-5.001,5.228-4.915C37.703,26.688,39.903,29.03,39.816,31.831L39.816,31.831z"/>
		<path clip-path="url(#SVGID_2_)" fill-rule="evenodd" clip-rule="evenodd" fill="#AF9170" d="M39.629,31.825
			c0.083-2.697-2.036-4.951-4.733-5.035c-2.697-0.083-4.951,2.036-5.034,4.733c-0.083,2.697,2.036,4.951,4.732,5.035
			C37.292,36.642,39.545,34.522,39.629,31.825L39.629,31.825z M40.192,31.842c-0.093,3.009-2.607,5.372-5.615,5.279
			s-5.372-2.607-5.279-5.616c0.093-3.008,2.607-5.371,5.616-5.278C37.922,26.32,40.285,28.833,40.192,31.842L40.192,31.842z"/>
		<path clip-path="url(#SVGID_2_)" fill-rule="evenodd" clip-rule="evenodd" fill="#AF9170" d="M40.004,31.836
			c0.09-2.905-2.192-5.332-5.097-5.422s-5.332,2.191-5.422,5.097c-0.09,2.904,2.192,5.332,5.097,5.421S39.915,34.741,40.004,31.836
			L40.004,31.836z M40.568,31.854c-0.1,3.215-2.787,5.741-6.002,5.642c-3.216-0.099-5.742-2.786-5.643-6.002
			c0.099-3.216,2.787-5.742,6.002-5.643C38.141,25.95,40.667,28.638,40.568,31.854L40.568,31.854z"/>
		<path clip-path="url(#SVGID_2_)" fill-rule="evenodd" clip-rule="evenodd" fill="#AF9170" d="M40.38,31.848
			c0.097-3.112-2.348-5.713-5.46-5.809c-3.113-0.096-5.713,2.349-5.81,5.461c-0.097,3.113,2.349,5.713,5.46,5.809
			C37.683,37.404,40.284,34.96,40.38,31.848L40.38,31.848z M40.944,31.865c-0.106,3.424-2.967,6.112-6.39,6.007
			s-6.113-2.967-6.007-6.39c0.106-3.424,2.967-6.113,6.391-6.007C38.36,25.581,41.049,28.442,40.944,31.865L40.944,31.865z"/>
		<path clip-path="url(#SVGID_2_)" fill-rule="evenodd" clip-rule="evenodd" fill="#AF9170" d="M40.756,31.859
			c0.103-3.319-2.506-6.093-5.825-6.196c-3.32-0.103-6.094,2.505-6.196,5.825c-0.103,3.32,2.505,6.093,5.825,6.197
			C37.879,37.786,40.653,35.179,40.756,31.859L40.756,31.859z M41.319,31.877c-0.112,3.629-3.146,6.483-6.777,6.37
			c-3.631-0.111-6.483-3.146-6.372-6.776c0.113-3.631,3.146-6.484,6.777-6.372C38.579,25.211,41.432,28.246,41.319,31.877
			L41.319,31.877z"/>
		<path clip-path="url(#SVGID_2_)" fill-rule="evenodd" clip-rule="evenodd" fill="#AF9170" d="M41.131,31.871
			c0.109-3.527-2.662-6.475-6.189-6.584c-3.526-0.109-6.474,2.663-6.583,6.189c-0.109,3.526,2.662,6.474,6.188,6.583
			C38.075,38.169,41.022,35.398,41.131,31.871L41.131,31.871z M41.695,31.889c-0.118,3.839-3.326,6.854-7.165,6.735
			c-3.838-0.119-6.854-3.326-6.735-7.165c0.119-3.838,3.327-6.854,7.165-6.735C38.798,24.843,41.813,28.05,41.695,31.889
			L41.695,31.889z"/>
		<path clip-path="url(#SVGID_2_)" fill-rule="evenodd" clip-rule="evenodd" fill="#AF9170" d="M41.507,31.883
			c0.115-3.735-2.819-6.855-6.553-6.971c-3.735-0.116-6.855,2.818-6.971,6.553c-0.115,3.734,2.818,6.854,6.553,6.972
			C38.271,38.552,41.392,35.617,41.507,31.883L41.507,31.883z M42.07,31.9c-0.125,4.045-3.505,7.224-7.551,7.099
			s-7.224-3.505-7.1-7.552c0.125-4.046,3.506-7.224,7.552-7.099S42.196,27.854,42.07,31.9L42.07,31.9z"/>
		<path clip-path="url(#SVGID_2_)" fill-rule="evenodd" clip-rule="evenodd" fill="#AF9170" d="M41.883,31.895
			c0.122-3.942-2.975-7.237-6.917-7.358c-3.941-0.122-7.236,2.975-7.357,6.917c-0.122,3.942,2.975,7.236,6.917,7.358
			C38.466,38.933,41.761,35.837,41.883,31.895L41.883,31.895z M42.446,31.912c-0.131,4.253-3.686,7.595-7.939,7.463
			c-4.252-0.132-7.594-3.687-7.462-7.939c0.131-4.254,3.686-7.594,7.939-7.464C39.236,24.104,42.578,27.658,42.446,31.912
			L42.446,31.912z"/>
		<path clip-path="url(#SVGID_2_)" fill-rule="evenodd" clip-rule="evenodd" fill="#AF906E" d="M42.259,31.906
			c0.128-4.149-3.132-7.617-7.281-7.745c-4.15-0.128-7.617,3.131-7.746,7.28c-0.128,4.15,3.131,7.619,7.281,7.746
			C38.663,39.315,42.13,36.056,42.259,31.906L42.259,31.906z M42.822,31.923c-0.138,4.46-3.866,7.965-8.326,7.828
			c-4.461-0.139-7.965-3.866-7.827-8.327c0.138-4.46,3.865-7.965,8.326-7.827C39.456,23.735,42.96,27.463,42.822,31.923
			L42.822,31.923z"/>
		<path clip-path="url(#SVGID_2_)" fill-rule="evenodd" clip-rule="evenodd" fill="#AE8F6C" d="M42.634,31.917
			c0.134-4.357-3.288-7.999-7.646-8.133c-4.356-0.135-7.998,3.288-8.132,7.645c-0.134,4.356,3.288,7.999,7.646,8.133
			C38.858,39.697,42.5,36.274,42.634,31.917L42.634,31.917z M43.198,31.935c-0.144,4.667-4.045,8.335-8.714,8.191
			c-4.668-0.145-8.336-4.045-8.191-8.713c0.144-4.668,4.045-8.336,8.713-8.191C39.674,23.365,43.342,27.267,43.198,31.935
			L43.198,31.935z"/>
		<path clip-path="url(#SVGID_2_)" fill-rule="evenodd" clip-rule="evenodd" fill="#AD8D6A" d="M43.01,31.929
			c0.141-4.565-3.445-8.379-8.009-8.52c-4.564-0.141-8.379,3.445-8.521,8.009c-0.141,4.565,3.445,8.379,8.009,8.521
			C39.054,40.079,42.869,36.493,43.01,31.929L43.01,31.929z M43.573,31.947c-0.15,4.875-4.225,8.707-9.101,8.555
			c-4.875-0.15-8.706-4.226-8.555-9.101c0.15-4.875,4.225-8.706,9.101-8.555S43.724,27.071,43.573,31.947L43.573,31.947z"/>
		<path clip-path="url(#SVGID_2_)" fill-rule="evenodd" clip-rule="evenodd" fill="#AC8C69" d="M43.385,31.941
			c0.147-4.771-3.601-8.76-8.373-8.908c-4.771-0.147-8.76,3.602-8.907,8.374c-0.147,4.771,3.602,8.759,8.374,8.906
			C39.25,40.461,43.238,36.712,43.385,31.941L43.385,31.941z M43.949,31.958c-0.157,5.084-4.405,9.076-9.488,8.92
			c-5.083-0.158-9.077-4.406-8.919-9.489c0.157-5.083,4.405-9.077,9.488-8.919C40.112,22.627,44.106,26.875,43.949,31.958
			L43.949,31.958z"/>
		<path clip-path="url(#SVGID_2_)" fill-rule="evenodd" clip-rule="evenodd" fill="#AB8B67" d="M43.761,31.953
			c0.154-4.979-3.758-9.141-8.737-9.295s-9.141,3.758-9.295,8.738c-0.153,4.979,3.758,9.141,8.737,9.295
			C39.446,40.844,43.607,36.933,43.761,31.953L43.761,31.953z M44.325,31.97c-0.163,5.291-4.585,9.447-9.875,9.283
			c-5.291-0.162-9.447-4.584-9.283-9.875c0.163-5.291,4.585-9.447,9.875-9.283S44.488,26.679,44.325,31.97L44.325,31.97z"/>
		<path clip-path="url(#SVGID_2_)" fill-rule="evenodd" clip-rule="evenodd" fill="#AA8966" d="M44.137,31.964
			c0.16-5.187-3.915-9.521-9.101-9.682c-5.187-0.16-9.522,3.915-9.682,9.102c-0.161,5.186,3.914,9.522,9.101,9.682
			C39.642,41.226,43.977,37.15,44.137,31.964L44.137,31.964z M44.701,31.981c-0.17,5.498-4.765,9.817-10.263,9.646
			c-5.499-0.169-9.818-4.764-9.648-10.262c0.169-5.498,4.765-9.817,10.263-9.647C40.551,21.889,44.871,26.483,44.701,31.981
			L44.701,31.981z"/>
		<path clip-path="url(#SVGID_2_)" fill-rule="evenodd" clip-rule="evenodd" fill="#A98864" d="M44.513,31.976
			c0.167-5.395-4.071-9.902-9.466-10.069c-5.394-0.167-9.902,4.071-10.069,9.466c-0.167,5.395,4.071,9.902,9.466,10.068
			C39.838,41.608,44.346,37.37,44.513,31.976L44.513,31.976z M45.076,31.993c-0.176,5.706-4.944,10.188-10.65,10.012
			c-5.705-0.177-10.188-4.945-10.011-10.65s4.944-10.188,10.65-10.011C40.77,21.52,45.252,26.288,45.076,31.993L45.076,31.993z"/>
		<path clip-path="url(#SVGID_2_)" fill-rule="evenodd" clip-rule="evenodd" fill="#A88762" d="M44.888,31.987
			c0.173-5.601-4.228-10.283-9.829-10.456c-5.602-0.173-10.284,4.227-10.457,9.829c-0.173,5.602,4.228,10.284,9.829,10.458
			C40.034,41.99,44.715,37.589,44.888,31.987L44.888,31.987z M45.452,32.005c-0.183,5.913-5.125,10.558-11.037,10.375
			c-5.914-0.184-10.559-5.125-10.376-11.037c0.183-5.914,5.125-10.559,11.038-10.376C40.989,21.15,45.634,26.091,45.452,32.005
			L45.452,32.005z"/>
		<path clip-path="url(#SVGID_2_)" fill-rule="evenodd" clip-rule="evenodd" fill="#A78560" d="M45.264,31.999
			c0.18-5.809-4.384-10.664-10.194-10.843S24.406,25.54,24.227,31.349c-0.179,5.809,4.384,10.664,10.193,10.844
			C40.229,42.372,45.084,37.809,45.264,31.999L45.264,31.999z M45.827,32.017c-0.189,6.121-5.304,10.928-11.424,10.739
			c-6.121-0.188-10.929-5.304-10.74-11.424c0.189-6.121,5.304-10.929,11.424-10.74C41.208,20.781,46.017,25.896,45.827,32.017
			L45.827,32.017z"/>
		<path clip-path="url(#SVGID_2_)" fill-rule="evenodd" clip-rule="evenodd" fill="#A7845F" d="M45.64,32.011
			c0.186-6.017-4.541-11.045-10.558-11.231c-6.017-0.187-11.044,4.541-11.231,10.557s4.541,11.045,10.557,11.23
			C40.425,42.753,45.453,38.027,45.64,32.011L45.64,32.011z M46.203,32.028c-0.196,6.328-5.484,11.299-11.812,11.104
			S23.092,37.647,23.288,31.32c0.195-6.328,5.484-11.299,11.812-11.104C41.427,20.412,46.398,25.7,46.203,32.028L46.203,32.028z"/>
		<path clip-path="url(#SVGID_2_)" fill-rule="evenodd" clip-rule="evenodd" fill="#A6835D" d="M46.016,32.022
			c0.192-6.224-4.697-11.426-10.922-11.618c-6.224-0.193-11.425,4.697-11.618,10.921c-0.192,6.225,4.697,11.426,10.922,11.619
			C40.621,43.136,45.823,38.246,46.016,32.022L46.016,32.022z M46.579,32.039c-0.202,6.536-5.664,11.671-12.199,11.468
			c-6.536-0.201-11.67-5.664-11.468-12.199c0.202-6.535,5.663-11.67,12.199-11.468C41.647,20.042,46.78,25.504,46.579,32.039
			L46.579,32.039z"/>
		<path clip-path="url(#SVGID_2_)" fill-rule="evenodd" clip-rule="evenodd" fill="#A4815B" d="M46.391,32.034
			c0.199-6.432-4.854-11.807-11.286-12.006c-6.432-0.199-11.806,4.854-12.005,11.286c-0.199,6.432,4.854,11.806,11.286,12.004
			C40.817,43.519,46.192,38.466,46.391,32.034L46.391,32.034z M46.955,32.051c-0.209,6.743-5.844,12.04-12.587,11.833
			c-6.743-0.21-12.04-5.845-11.832-12.587c0.208-6.743,5.844-12.04,12.587-11.832C41.866,19.673,47.163,25.308,46.955,32.051
			L46.955,32.051z"/>
		<path clip-path="url(#SVGID_2_)" fill-rule="evenodd" clip-rule="evenodd" fill="#A4805A" d="M46.767,32.045
			c0.205-6.64-5.011-12.188-11.65-12.393c-6.639-0.206-12.188,5.01-12.393,11.649c-0.205,6.639,5.011,12.188,11.65,12.394
			C41.013,43.899,46.562,38.685,46.767,32.045L46.767,32.045z M47.33,32.062c-0.215,6.951-6.023,12.411-12.974,12.196
			c-6.95-0.215-12.411-6.023-12.195-12.974c0.215-6.95,6.023-12.41,12.974-12.195C42.084,19.304,47.545,25.112,47.33,32.062
			L47.33,32.062z"/>
		<path clip-path="url(#SVGID_2_)" fill-rule="evenodd" clip-rule="evenodd" fill="#A38058" d="M47.142,32.057
			c0.212-6.847-5.167-12.569-12.014-12.781c-6.847-0.211-12.568,5.167-12.78,12.014c-0.211,6.847,5.167,12.568,12.014,12.779
			C41.209,44.282,46.931,38.903,47.142,32.057L47.142,32.057z M47.706,32.074c-0.222,7.157-6.204,12.781-13.361,12.56
			c-7.158-0.221-12.781-6.202-12.56-13.36c0.221-7.158,6.203-12.781,13.361-12.56C42.304,18.935,47.927,24.917,47.706,32.074
			L47.706,32.074z"/>
		<path clip-path="url(#SVGID_2_)" fill-rule="evenodd" clip-rule="evenodd" fill="#A27F57" d="M47.518,32.069
			c0.218-7.055-5.324-12.95-12.378-13.167c-7.054-0.218-12.95,5.324-13.167,12.377c-0.218,7.054,5.324,12.949,12.378,13.167
			C41.405,44.664,47.3,39.122,47.518,32.069L47.518,32.069z M48.082,32.086c-0.228,7.366-6.383,13.151-13.749,12.923
			c-7.365-0.227-13.152-6.382-12.924-13.748c0.228-7.365,6.383-13.151,13.748-12.923C42.523,18.565,48.309,24.72,48.082,32.086
			L48.082,32.086z"/>
		<path clip-path="url(#SVGID_2_)" fill-rule="evenodd" clip-rule="evenodd" fill="#A17E55" d="M47.893,32.08
			c0.225-7.262-5.48-13.331-12.742-13.555c-7.261-0.225-13.33,5.48-13.554,12.742c-0.225,7.263,5.48,13.331,12.742,13.555
			S47.669,39.342,47.893,32.08L47.893,32.08z M48.458,32.098c-0.235,7.572-6.563,13.522-14.136,13.287
			c-7.573-0.233-13.522-6.562-13.288-14.135c0.234-7.573,6.563-13.522,14.135-13.288C42.742,18.196,48.691,24.525,48.458,32.098
			L48.458,32.098z"/>
		<path clip-path="url(#SVGID_2_)" fill-rule="evenodd" clip-rule="evenodd" fill="#A07C54" d="M48.27,32.092
			c0.23-7.469-5.637-13.712-13.106-13.942c-7.469-0.231-13.711,5.637-13.942,13.106c-0.23,7.468,5.637,13.71,13.106,13.941
			C41.796,45.429,48.039,39.561,48.27,32.092L48.27,32.092z M48.832,32.109c-0.24,7.78-6.742,13.892-14.522,13.651
			c-7.78-0.24-13.893-6.742-13.652-14.523c0.24-7.78,6.743-13.892,14.523-13.651C42.961,17.827,49.073,24.329,48.832,32.109
			L48.832,32.109z"/>
		<path clip-path="url(#SVGID_2_)" fill-rule="evenodd" clip-rule="evenodd" fill="#9F7B52" d="M48.645,32.103
			c0.237-7.676-5.793-14.092-13.47-14.329c-7.677-0.237-14.092,5.793-14.329,13.47s5.793,14.092,13.47,14.329
			C41.993,45.811,48.408,39.78,48.645,32.103L48.645,32.103z M49.208,32.121c-0.247,7.988-6.923,14.263-14.91,14.015
			c-7.988-0.246-14.263-6.921-14.017-14.909c0.247-7.988,6.923-14.263,14.911-14.016C43.18,17.458,49.455,24.133,49.208,32.121
			L49.208,32.121z"/>
		<path clip-path="url(#SVGID_2_)" fill-rule="evenodd" clip-rule="evenodd" fill="#9E7A50" d="M49.021,32.115
			c0.243-7.884-5.951-14.473-13.834-14.716c-7.884-0.244-14.473,5.95-14.717,13.833c-0.243,7.884,5.951,14.472,13.834,14.716
			S48.777,39.999,49.021,32.115L49.021,32.115z M49.584,32.133c-0.253,8.194-7.102,14.633-15.297,14.38
			c-8.195-0.252-14.633-7.102-14.38-15.297c0.253-8.196,7.102-14.634,15.297-14.38C43.399,17.088,49.837,23.937,49.584,32.133
			L49.584,32.133z"/>
		<path clip-path="url(#SVGID_2_)" fill-rule="evenodd" clip-rule="evenodd" fill="#9E794F" d="M49.396,32.126
			c0.25-8.092-6.107-14.854-14.198-15.104c-8.092-0.25-14.854,6.106-15.104,14.198c-0.25,8.093,6.107,14.854,14.198,15.104
			C42.384,46.575,49.146,40.218,49.396,32.126L49.396,32.126z M49.959,32.144c-0.259,8.402-7.282,15.004-15.685,14.744
			c-8.402-0.259-15.004-7.281-14.744-15.684c0.259-8.402,7.282-15.004,15.684-14.745C43.618,16.719,50.219,23.742,49.959,32.144
			L49.959,32.144z"/>
		<path clip-path="url(#SVGID_2_)" fill-rule="evenodd" clip-rule="evenodd" fill="#9C774E" d="M49.772,32.138
			c0.257-8.298-6.263-15.234-14.562-15.49c-8.299-0.256-15.235,6.263-15.492,14.562c-0.256,8.298,6.264,15.235,14.562,15.491
			C42.58,46.957,49.516,40.437,49.772,32.138L49.772,32.138z M50.335,32.156c-0.266,8.608-7.462,15.374-16.072,15.107
			c-8.61-0.266-15.374-7.462-15.108-16.071c0.266-8.611,7.461-15.375,16.072-15.109C43.837,16.35,50.601,23.545,50.335,32.156
			L50.335,32.156z"/>
		<path clip-path="url(#SVGID_2_)" fill-rule="evenodd" clip-rule="evenodd" fill="#9B764C" d="M50.148,32.15
			c0.263-8.506-6.42-15.616-14.927-15.878c-8.507-0.263-15.615,6.42-15.878,14.926c-0.263,8.506,6.42,15.616,14.926,15.877
			C42.776,47.34,49.885,40.657,50.148,32.15L50.148,32.15z M50.711,32.167c-0.273,8.818-7.642,15.745-16.459,15.472
			c-8.818-0.271-15.745-7.64-15.473-16.458c0.273-8.817,7.642-15.745,16.459-15.472C44.057,15.98,50.983,23.35,50.711,32.167
			L50.711,32.167z"/>
		<path clip-path="url(#SVGID_2_)" fill-rule="evenodd" clip-rule="evenodd" fill="#9B754B" d="M50.523,32.161
			c0.27-8.714-6.576-15.996-15.291-16.265c-8.713-0.27-15.996,6.576-16.266,15.29c-0.269,8.714,6.577,15.997,15.291,16.265
			C42.971,47.721,50.254,40.876,50.523,32.161L50.523,32.161z M51.087,32.178c-0.279,9.026-7.821,16.116-16.847,15.836
			s-16.115-7.822-15.836-16.846c0.279-9.025,7.821-16.115,16.847-15.836C44.275,15.612,51.365,23.153,51.087,32.178L51.087,32.178z"
			/>
		<path clip-path="url(#SVGID_2_)" fill-rule="evenodd" clip-rule="evenodd" fill="#9A744A" d="M50.898,32.173
			c0.276-8.921-6.732-16.377-15.654-16.653c-8.921-0.276-16.377,6.733-16.653,15.654c-0.276,8.922,6.732,16.376,15.654,16.653
			C43.167,48.103,50.623,41.095,50.898,32.173L50.898,32.173z M51.462,32.19c-0.286,9.232-8.001,16.485-17.234,16.2
			c-9.232-0.284-16.485-8.001-16.201-17.233c0.286-9.232,8.001-16.486,17.234-16.201C44.495,15.242,51.748,22.958,51.462,32.19
			L51.462,32.19z"/>
		<path clip-path="url(#SVGID_2_)" fill-rule="evenodd" clip-rule="evenodd" fill="#997348" d="M51.275,32.185
			c0.282-9.129-6.89-16.758-16.019-17.04c-9.128-0.282-16.758,6.889-17.04,16.018c-0.282,9.128,6.89,16.759,16.019,17.04
			C43.363,48.485,50.993,41.313,51.275,32.185L51.275,32.185z M51.838,32.202c-0.292,9.44-8.181,16.857-17.621,16.564
			c-9.44-0.291-16.856-8.18-16.564-17.62c0.292-9.44,8.181-16.856,17.621-16.564C44.713,14.873,52.129,22.762,51.838,32.202
			L51.838,32.202z"/>
		<path clip-path="url(#SVGID_2_)" fill-rule="evenodd" clip-rule="evenodd" fill="#987147" d="M51.65,32.196
			c0.289-9.336-7.046-17.139-16.382-17.428c-9.336-0.289-17.139,7.046-17.427,16.383c-0.289,9.336,7.046,17.139,16.382,17.427
			C43.559,48.867,51.361,41.532,51.65,32.196L51.65,32.196z M52.213,32.214c-0.298,9.648-8.36,17.228-18.008,16.929
			c-9.647-0.298-17.227-8.36-16.929-18.008c0.298-9.647,8.361-17.227,18.009-16.929C44.933,14.503,52.512,22.566,52.213,32.214
			L52.213,32.214z"/>
		<path clip-path="url(#SVGID_2_)" fill-rule="evenodd" clip-rule="evenodd" fill="#977045" d="M52.026,32.208
			c0.294-9.544-7.203-17.52-16.747-17.815c-9.543-0.295-17.52,7.203-17.814,16.747c-0.295,9.545,7.203,17.52,16.746,17.813
			C43.755,49.251,51.731,41.752,52.026,32.208L52.026,32.208z M52.589,32.225c-0.304,9.855-8.54,17.597-18.396,17.292
			c-9.854-0.305-17.597-8.541-17.292-18.396c0.305-9.854,8.54-17.597,18.395-17.292C45.151,14.134,52.894,22.371,52.589,32.225
			L52.589,32.225z"/>
		<path clip-path="url(#SVGID_2_)" fill-rule="evenodd" clip-rule="evenodd" fill="#966F43" d="M52.401,32.22
			c0.301-9.751-7.359-17.901-17.11-18.202c-9.751-0.301-17.9,7.359-18.202,17.111c-0.301,9.751,7.359,17.9,17.111,18.202
			C43.951,49.631,52.1,41.971,52.401,32.22L52.401,32.22z M52.965,32.237C52.654,42.3,44.245,50.204,34.183,49.894
			C24.12,49.582,16.215,41.173,16.526,31.11c0.311-10.062,8.72-17.968,18.782-17.657C45.371,13.765,53.276,22.174,52.965,32.237
			L52.965,32.237z"/>
		<path clip-path="url(#SVGID_2_)" fill-rule="evenodd" clip-rule="evenodd" fill="#956E42" d="M52.777,32.231
			c0.308-9.959-7.516-18.282-17.475-18.589c-9.959-0.308-18.282,7.516-18.589,17.475c-0.308,9.958,7.516,18.281,17.475,18.588
			C44.146,50.014,52.47,42.19,52.777,32.231L52.777,32.231z M53.34,32.249c-0.317,10.27-8.899,18.338-19.169,18.02
			C23.9,49.952,15.832,41.37,16.15,31.099c0.317-10.27,8.9-18.338,19.17-18.02C45.59,13.396,53.658,21.979,53.34,32.249
			L53.34,32.249z"/>
		<path clip-path="url(#SVGID_2_)" fill-rule="evenodd" clip-rule="evenodd" fill="#946D41" d="M53.153,32.242
			c0.314-10.166-7.672-18.662-17.838-18.976c-10.167-0.314-18.662,7.673-18.977,17.839c-0.314,10.166,7.673,18.663,17.839,18.976
			C44.342,50.396,52.838,42.408,53.153,32.242L53.153,32.242z M53.716,32.26c-0.324,10.478-9.08,18.709-19.557,18.385
			c-10.478-0.323-18.709-9.079-18.385-19.557c0.323-10.478,9.08-18.708,19.557-18.385C45.809,13.026,54.04,21.783,53.716,32.26
			L53.716,32.26z"/>
		<path clip-path="url(#SVGID_2_)" fill-rule="evenodd" clip-rule="evenodd" fill="#936B3F" d="M53.529,32.254
			c0.32-10.374-7.83-19.043-18.203-19.363c-10.374-0.321-19.043,7.828-19.364,18.202c-0.32,10.375,7.829,19.043,18.203,19.363
			C44.539,50.778,53.208,42.628,53.529,32.254L53.529,32.254z M54.092,32.272c-0.33,10.684-9.26,19.078-19.945,18.749
			c-10.685-0.331-19.079-9.26-18.749-19.945s9.26-19.079,19.945-18.749C46.028,12.657,54.422,21.587,54.092,32.272L54.092,32.272z"
			/>
		<path clip-path="url(#SVGID_2_)" fill-rule="evenodd" clip-rule="evenodd" fill="#926A3E" d="M53.904,32.266
			c0.327-10.581-7.986-19.424-18.566-19.751C24.756,12.188,15.914,20.5,15.586,31.082c-0.327,10.582,7.985,19.424,18.566,19.751
			C44.734,51.158,53.577,42.847,53.904,32.266L53.904,32.266z M54.468,32.283c-0.337,10.893-9.439,19.45-20.332,19.112
			c-10.893-0.337-19.45-9.439-19.113-20.331c0.336-10.893,9.439-19.45,20.332-19.113C46.247,12.288,54.804,21.391,54.468,32.283
			L54.468,32.283z"/>
		<path clip-path="url(#SVGID_2_)" fill-rule="evenodd" clip-rule="evenodd" fill="#91693C" d="M54.28,32.277
			c0.333-10.789-8.143-19.805-18.931-20.138C24.561,11.806,15.544,20.281,15.21,31.07c-0.333,10.788,8.143,19.805,18.931,20.138
			S53.947,43.066,54.28,32.277L54.28,32.277z M54.843,32.295c-0.343,11.099-9.619,19.82-20.719,19.476
			c-11.1-0.342-19.82-9.618-19.477-20.718c0.343-11.101,9.619-19.821,20.719-19.478C46.466,11.919,55.187,21.195,54.843,32.295
			L54.843,32.295z"/>
		<path clip-path="url(#SVGID_2_)" fill-rule="evenodd" clip-rule="evenodd" fill="#91683B" d="M54.655,32.289
			c0.34-10.996-8.298-20.186-19.295-20.526c-10.996-0.339-20.186,8.299-20.525,19.295c-0.34,10.997,8.298,20.185,19.294,20.526
			C45.126,51.924,54.316,43.285,54.655,32.289L54.655,32.289z M55.219,32.306c-0.35,11.307-9.799,20.192-21.107,19.841
			c-11.307-0.35-20.19-9.799-19.841-21.106c0.35-11.308,9.799-20.19,21.106-19.841C46.686,11.55,55.568,20.999,55.219,32.306
			L55.219,32.306z"/>
		<path clip-path="url(#SVGID_2_)" fill-rule="evenodd" clip-rule="evenodd" fill="#906739" d="M55.031,32.301
			c0.347-11.204-8.456-20.566-19.659-20.913c-11.204-0.346-20.567,8.455-20.913,19.659c-0.346,11.204,8.456,20.567,19.659,20.912
			C45.322,52.307,54.685,43.504,55.031,32.301L55.031,32.301z M55.595,32.318c-0.356,11.515-9.979,20.562-21.494,20.206
			c-11.515-0.356-20.561-9.979-20.205-21.494c0.356-11.515,9.979-20.561,21.494-20.205C46.905,11.181,55.95,20.803,55.595,32.318
			L55.595,32.318z"/>
		<path clip-path="url(#SVGID_2_)" fill-rule="evenodd" clip-rule="evenodd" fill="#8E6538" d="M55.407,32.312
			c0.353-11.412-8.612-20.948-20.023-21.3c-11.411-0.353-20.947,8.612-21.3,20.023c-0.353,11.411,8.612,20.948,20.023,21.3
			C45.518,52.688,55.054,43.724,55.407,32.312L55.407,32.312z M55.97,32.33c-0.362,11.722-10.159,20.931-21.881,20.569
			C22.367,52.536,13.158,42.739,13.52,31.018c0.363-11.722,10.159-20.931,21.882-20.569C47.123,10.811,56.333,20.607,55.97,32.33
			L55.97,32.33z"/>
		<path clip-path="url(#SVGID_2_)" fill-rule="evenodd" clip-rule="evenodd" fill="#8D6436" d="M55.783,32.324
			c0.359-11.618-8.769-21.328-20.387-21.687c-11.619-0.36-21.329,8.769-21.688,20.387c-0.359,11.618,8.768,21.329,20.387,21.688
			C45.714,53.069,55.423,43.942,55.783,32.324L55.783,32.324z M56.346,32.341c-0.369,11.93-10.339,21.301-22.268,20.933
			c-11.93-0.369-21.301-10.338-20.933-22.268c0.369-11.93,10.339-21.302,22.269-20.933S56.714,20.412,56.346,32.341L56.346,32.341z"
			/>
		<path clip-path="url(#SVGID_2_)" fill-rule="evenodd" clip-rule="evenodd" fill="#8D6335" d="M56.158,32.336
			c0.366-11.827-8.925-21.709-20.751-22.075c-11.826-0.366-21.708,8.925-22.074,20.75c-0.366,11.826,8.925,21.709,20.751,22.074
			C45.91,53.452,55.792,44.161,56.158,32.336L56.158,32.336z M56.722,32.353C56.346,44.489,46.203,54.025,34.066,53.65
			c-12.137-0.376-21.672-10.519-21.297-22.656C13.145,18.857,23.287,9.322,35.424,9.697C47.562,10.072,57.097,20.215,56.722,32.353
			L56.722,32.353z"/>
		<path clip-path="url(#SVGID_2_)" fill-rule="evenodd" clip-rule="evenodd" fill="#8B6233" d="M56.534,32.348
			c0.372-12.034-9.083-22.091-21.115-22.462C23.385,9.513,13.329,18.967,12.957,31c-0.372,12.034,9.082,22.089,21.115,22.461
			S56.162,44.38,56.534,32.348L56.534,32.348z M57.097,32.365C56.716,44.71,46.399,54.408,34.054,54.025
			c-12.345-0.381-22.043-10.698-21.661-23.042C12.775,18.638,23.092,8.94,35.436,9.322C47.781,9.703,57.479,20.02,57.097,32.365
			L57.097,32.365z"/>
		<path clip-path="url(#SVGID_2_)" fill-rule="evenodd" clip-rule="evenodd" fill="#8B6133" d="M56.91,32.359
			C57.288,20.118,47.671,9.888,35.43,9.51c-12.241-0.379-22.471,9.238-22.849,21.479s9.238,22.472,21.479,22.849
			C46.301,54.217,56.531,44.601,56.91,32.359L56.91,32.359z M57.473,32.376c-0.388,12.552-10.878,22.413-23.43,22.025
			c-12.552-0.388-22.414-10.878-22.026-23.43S22.895,8.559,35.447,8.946S57.861,19.824,57.473,32.376L57.473,32.376z"/>
		<path clip-path="url(#SVGID_2_)" fill-rule="evenodd" clip-rule="evenodd" fill="#896031" d="M57.286,32.37
			C57.67,19.922,47.89,9.519,35.442,9.134C22.994,8.749,12.59,18.528,12.205,30.978C11.821,43.425,21.6,53.83,34.048,54.214
			C46.497,54.598,56.9,44.817,57.286,32.37L57.286,32.37z M57.849,32.388c-0.395,12.76-11.058,22.783-23.817,22.389
			c-12.76-0.394-22.784-11.057-22.389-23.817C12.036,18.2,22.7,8.176,35.459,8.571C48.219,8.965,58.243,19.628,57.849,32.388
			L57.849,32.388z"/>
		<path clip-path="url(#SVGID_2_)" fill-rule="evenodd" clip-rule="evenodd" fill="#885E2F" d="M57.661,32.382
			c0.392-12.656-9.551-23.232-22.207-23.624C22.797,8.367,12.221,18.31,11.83,30.965c-0.391,12.657,9.552,23.233,22.208,23.624
			C46.693,54.98,57.27,45.038,57.661,32.382L57.661,32.382z M58.224,32.399c-0.4,12.967-11.237,23.154-24.204,22.754
			c-12.968-0.402-23.155-11.238-22.754-24.206C11.667,17.981,22.503,7.793,35.471,8.195C48.438,8.595,58.625,19.433,58.224,32.399
			L58.224,32.399z"/>
		<path clip-path="url(#SVGID_2_)" fill-rule="evenodd" clip-rule="evenodd" fill="#875D2E" d="M58.037,32.394
			C58.434,19.53,48.329,8.78,35.465,8.383C22.602,7.985,11.852,18.09,11.454,30.954c-0.397,12.863,9.708,23.613,22.572,24.011
			S57.639,45.257,58.037,32.394L58.037,32.394z M58.6,32.411c-0.407,13.175-11.417,23.524-24.592,23.117
			C20.833,55.12,10.483,44.11,10.891,30.937C11.298,17.762,22.308,7.412,35.483,7.819C48.657,8.226,59.007,19.236,58.6,32.411
			L58.6,32.411z"/>
		<path clip-path="url(#SVGID_2_)" fill-rule="evenodd" clip-rule="evenodd" fill="#865B2D" d="M58.412,32.405
			c0.404-13.07-9.864-23.994-22.935-24.398c-13.071-0.404-23.995,9.864-24.398,22.936c-0.404,13.07,9.864,23.994,22.935,24.398
			C47.085,55.745,58.008,45.477,58.412,32.405L58.412,32.405z M58.976,32.423c-0.414,13.382-11.598,23.896-24.979,23.481
			c-13.383-0.413-23.895-11.597-23.482-24.979C10.929,17.543,22.112,7.03,35.494,7.443C48.876,7.856,59.39,19.041,58.976,32.423
			L58.976,32.423z"/>
		<path clip-path="url(#SVGID_2_)" fill-rule="evenodd" clip-rule="evenodd" fill="#855B2C" d="M58.788,32.417
			c0.41-13.278-10.021-24.375-23.3-24.786C22.21,7.221,11.113,17.652,10.703,30.931s10.021,24.376,23.299,24.785
			C47.28,56.127,58.377,45.694,58.788,32.417L58.788,32.417z M59.351,32.435c-0.419,13.59-11.777,24.265-25.366,23.845
			C20.395,55.86,9.719,44.503,10.14,30.914c0.419-13.59,11.777-24.266,25.366-23.846C49.096,7.488,59.771,18.844,59.351,32.435
			L59.351,32.435z"/>
		<path clip-path="url(#SVGID_2_)" fill-rule="evenodd" clip-rule="evenodd" fill="#84592A" d="M59.163,32.429
			C59.58,18.942,48.986,7.672,35.5,7.255S10.744,17.433,10.327,30.919C9.911,44.405,20.505,55.675,33.99,56.092
			C47.477,56.508,58.747,45.915,59.163,32.429L59.163,32.429z M59.727,32.446C59.3,46.243,47.77,57.082,33.973,56.656
			C20.176,56.229,9.337,44.698,9.763,30.901C10.19,17.104,21.72,6.266,35.518,6.692C49.314,7.118,60.153,18.649,59.727,32.446
			L59.727,32.446z"/>
		<path clip-path="url(#SVGID_2_)" fill-rule="evenodd" clip-rule="evenodd" fill="#835829" d="M59.54,32.44
			C59.962,18.747,49.205,7.303,35.511,6.88C21.818,6.457,10.375,17.214,9.951,30.907c-0.423,13.694,10.334,25.137,24.028,25.56
			C47.672,56.891,59.116,46.133,59.54,32.44L59.54,32.44z M60.102,32.457C59.67,46.462,47.966,57.465,33.961,57.031
			S8.955,44.894,9.388,30.89C9.821,16.886,21.524,5.884,35.529,6.316C49.534,6.75,60.536,18.453,60.102,32.457L60.102,32.457z"/>
		<path clip-path="url(#SVGID_2_)" fill-rule="evenodd" clip-rule="evenodd" fill="#825728" d="M59.915,32.452
			c0.43-13.901-10.491-25.518-24.391-25.947c-13.901-0.43-25.519,10.49-25.948,24.392c-0.43,13.9,10.491,25.517,24.392,25.948
			C47.869,57.273,59.485,46.353,59.915,32.452L59.915,32.452z M60.479,32.469C60.039,46.681,48.162,57.847,33.95,57.406
			C19.738,56.967,8.573,45.091,9.012,30.878C9.452,16.667,21.329,5.501,35.541,5.94C49.752,6.38,60.917,18.257,60.479,32.469
			L60.479,32.469z"/>
		<path clip-path="url(#SVGID_2_)" fill-rule="evenodd" clip-rule="evenodd" fill="#815627" d="M60.291,32.463
			C60.727,18.355,49.643,6.565,35.535,6.129C21.427,5.692,9.636,16.776,9.2,30.884C8.764,44.992,19.848,56.782,33.956,57.219
			C48.063,57.655,59.854,46.571,60.291,32.463L60.291,32.463z M60.854,32.48c-0.445,14.419-12.496,25.747-26.916,25.302
			C19.519,57.338,8.191,45.286,8.637,30.867S21.133,5.12,35.552,5.565C49.972,6.011,61.299,18.062,60.854,32.48L60.854,32.48z"/>
		<path clip-path="url(#SVGID_2_)" fill-rule="evenodd" clip-rule="evenodd" fill="#815525" d="M60.667,32.475
			c0.442-14.315-10.805-26.28-25.12-26.722C21.23,5.31,9.267,16.557,8.824,30.873c-0.442,14.316,10.804,26.28,25.12,26.722
			C48.26,58.036,60.224,46.792,60.667,32.475L60.667,32.475z M61.229,32.493C60.777,47.12,48.554,58.609,33.926,58.158
			C19.3,57.706,7.809,45.481,8.261,30.855C8.713,16.229,20.937,4.737,35.564,5.189C50.191,5.641,61.682,17.865,61.229,32.493
			L61.229,32.493z"/>
		<path clip-path="url(#SVGID_2_)" fill-rule="evenodd" clip-rule="evenodd" fill="#805324" d="M61.042,32.487
			c0.449-14.523-10.96-26.661-25.484-27.109C21.035,4.928,8.897,16.338,8.448,30.861C8,45.385,19.409,57.521,33.933,57.97
			C48.456,58.419,60.593,47.009,61.042,32.487L61.042,32.487z M61.605,32.504c-0.458,14.834-12.855,26.488-27.69,26.03
			C19.081,58.075,7.427,45.678,7.885,30.843S20.741,4.355,35.575,4.814C50.41,5.272,62.064,17.669,61.605,32.504L61.605,32.504z"/>
		<path clip-path="url(#SVGID_2_)" fill-rule="evenodd" clip-rule="evenodd" fill="#7F5223" d="M61.417,32.498
			C61.873,17.768,50.3,5.457,35.569,5.001C20.838,4.546,8.529,16.119,8.073,30.85C7.618,45.579,19.19,57.891,33.921,58.347
			C48.652,58.801,60.962,47.229,61.417,32.498L61.417,32.498z M61.981,32.516c-0.465,15.042-13.036,26.858-28.077,26.394
			C18.862,58.444,7.045,45.874,7.51,30.832S20.545,3.973,35.586,4.438C50.629,4.903,62.446,17.474,61.981,32.516L61.981,32.516z"/>
		<path clip-path="url(#SVGID_2_)" fill-rule="evenodd" clip-rule="evenodd" fill="#7E5122" d="M61.793,32.51
			C62.255,17.571,50.519,5.087,35.582,4.626C20.643,4.164,8.159,15.9,7.697,30.838C7.236,45.776,18.972,58.26,33.909,58.722
			C48.847,59.184,61.331,47.448,61.793,32.51L61.793,32.51z M62.357,32.526c-0.472,15.25-13.215,27.231-28.465,26.759
			C18.643,58.815,6.662,46.07,7.134,30.82C7.605,15.571,20.349,3.591,35.599,4.062C50.848,4.534,62.829,17.278,62.357,32.526
			L62.357,32.526z"/>
		<path clip-path="url(#SVGID_2_)" fill-rule="evenodd" clip-rule="evenodd" fill="#7D5020" d="M62.168,32.521
			C62.637,17.376,50.738,4.719,35.593,4.25C20.447,3.782,7.79,15.68,7.322,30.826c-0.469,15.146,11.43,27.802,26.576,28.271
			C49.043,59.566,61.701,47.668,62.168,32.521L62.168,32.521z M62.732,32.538C62.254,47.996,49.337,60.139,33.88,59.661
			C18.423,59.184,6.28,46.265,6.758,30.809C7.236,15.352,20.153,3.209,35.61,3.687C51.067,4.165,63.21,17.082,62.732,32.538
			L62.732,32.538z"/>
		<path clip-path="url(#SVGID_2_)" fill-rule="evenodd" clip-rule="evenodd" fill="#7C4F1F" d="M62.544,32.532
			C63.019,17.18,50.958,4.349,35.605,3.875C20.251,3.4,7.42,15.461,6.946,30.815c-0.474,15.352,11.587,28.184,26.94,28.658
			C49.239,59.947,62.069,47.886,62.544,32.532L62.544,32.532z M63.107,32.551c-0.483,15.663-13.574,27.97-29.239,27.486
			c-15.664-0.484-27.97-13.575-27.486-29.24C6.867,15.133,19.958,2.827,35.622,3.311C51.286,3.795,63.592,16.886,63.107,32.551
			L63.107,32.551z"/>
		<path clip-path="url(#SVGID_2_)" fill-rule="evenodd" clip-rule="evenodd" fill="#7B4E1F" d="M62.92,32.544
			C63.401,16.984,51.176,3.98,35.616,3.499S7.051,15.243,6.571,30.803C6.09,46.363,18.314,59.368,33.874,59.849
			C49.435,60.329,62.439,48.104,62.92,32.544L62.92,32.544z M63.483,32.562c-0.49,15.873-13.754,28.341-29.626,27.851
			c-15.872-0.49-28.341-13.755-27.85-29.626S19.762,2.445,35.633,2.935C51.505,3.426,63.974,16.69,63.483,32.562L63.483,32.562z"/>
		<path clip-path="url(#SVGID_2_)" fill-rule="evenodd" clip-rule="evenodd" fill="#7A4D1D" d="M63.296,32.556
			c0.486-15.768-11.9-28.945-27.669-29.432C19.859,2.636,6.682,15.023,6.195,30.792c-0.487,15.768,11.9,28.946,27.668,29.433
			S62.808,48.324,63.296,32.556L63.296,32.556z M63.859,32.573c-0.497,16.079-13.934,28.712-30.013,28.214
			C17.766,60.291,5.134,46.854,5.632,30.774C6.128,14.695,19.565,2.062,35.645,2.56S64.356,16.495,63.859,32.573L63.859,32.573z"/>
		<path clip-path="url(#SVGID_2_)" fill-rule="evenodd" clip-rule="evenodd" fill="#794C1C" d="M63.671,32.567
			c0.494-15.975-12.057-29.326-28.032-29.82C19.664,2.254,6.313,14.804,5.819,30.779C5.325,46.755,17.875,60.105,33.851,60.6
			S63.178,48.543,63.671,32.567L63.671,32.567z M64.235,32.585c-0.503,16.287-14.114,29.081-30.401,28.579
			C17.547,60.66,4.752,47.048,5.256,30.762C5.759,14.476,19.37,1.681,35.657,2.184C51.943,2.687,64.738,16.298,64.235,32.585
			L64.235,32.585z"/>
		<path clip-path="url(#SVGID_2_)" fill-rule="evenodd" clip-rule="evenodd" fill="#784A1B" d="M64.047,32.579
			c0.5-16.183-12.213-29.708-28.397-30.207C19.468,1.872,5.943,14.585,5.443,30.768C4.943,46.95,17.657,60.475,33.84,60.976
			C50.022,61.477,63.547,48.763,64.047,32.579L64.047,32.579z M64.61,32.597c-0.509,16.494-14.293,29.452-30.788,28.942
			C17.329,61.029,4.37,47.245,4.88,30.751C5.389,14.256,19.174,1.298,35.668,1.809C52.162,2.318,65.12,16.103,64.61,32.597
			L64.61,32.597z"/>
		<path clip-path="url(#SVGID_2_)" fill-rule="evenodd" clip-rule="evenodd" fill="#77491A" d="M64.423,32.591
			c0.507-16.39-12.37-30.088-28.76-30.595C19.272,1.49,5.574,14.366,5.067,30.756c-0.506,16.391,12.37,30.089,28.761,30.595
			C50.218,61.856,63.917,48.98,64.423,32.591L64.423,32.591z M64.986,32.608C64.47,49.31,50.512,62.432,33.811,61.915
			S3.988,47.441,4.504,30.739C5.021,14.038,18.978,0.917,35.68,1.433C52.382,1.949,65.502,15.907,64.986,32.608L64.986,32.608z"/>
		<path clip-path="url(#SVGID_2_)" fill-rule="evenodd" clip-rule="evenodd" fill="#764819" d="M64.798,32.603
			C65.312,16.004,52.272,2.133,35.674,1.621C19.076,1.108,5.205,14.147,4.692,30.745c-0.513,16.598,12.527,30.47,29.125,30.983
			C50.415,62.24,64.285,49.201,64.798,32.603L64.798,32.603z M65.362,32.62C64.84,49.529,50.708,62.813,33.799,62.29
			C16.89,61.768,3.606,47.637,4.129,30.728C4.651,13.818,18.783,0.535,35.691,1.057C52.601,1.58,65.884,15.711,65.362,32.62
			L65.362,32.62z"/>
		<path clip-path="url(#SVGID_2_)" fill-rule="evenodd" clip-rule="evenodd" fill="#754717" d="M65.174,32.614
			c0.52-16.806-12.683-30.85-29.488-31.37C18.88,0.726,4.835,13.928,4.316,30.733C3.797,47.539,17,61.583,33.805,62.103
			C50.61,62.622,64.655,49.42,65.174,32.614L65.174,32.614z M65.738,32.632c-0.529,17.115-14.833,30.564-31.951,30.035
			C16.671,62.136,3.224,47.832,3.753,30.716C4.282,13.6,18.586,0.152,35.703,0.681C52.82,1.21,66.267,15.515,65.738,32.632
			L65.738,32.632z"/>
		<path clip-path="url(#SVGID_2_)" fill-rule="evenodd" clip-rule="evenodd" fill="#744616" d="M65.55,32.626
			c0.526-17.013-12.84-31.23-29.853-31.757C18.684,0.343,4.466,13.709,3.941,30.722c-0.526,17.012,12.84,31.23,29.852,31.756
			C50.806,63.005,65.024,49.639,65.55,32.626L65.55,32.626z M66.113,32.644C65.578,49.968,51.1,63.576,33.776,63.042
			C16.452,62.505,2.842,48.028,3.377,30.704C3.913,13.38,18.391-0.229,35.714,0.306C53.039,0.841,66.648,15.319,66.113,32.644
			L66.113,32.644z"/>
		<path clip-path="url(#SVGID_2_)" fill-rule="evenodd" clip-rule="evenodd" fill="#734514" d="M65.925,32.638
			C66.458,15.417,52.93,1.026,35.708,0.493C18.489-0.039,4.098,13.49,3.565,30.71C3.033,47.93,16.561,62.321,33.782,62.854
			C51.002,63.387,65.393,49.857,65.925,32.638L65.925,32.638z M66.489,32.655c-0.542,17.531-15.193,31.304-32.724,30.763
			C16.233,62.876,2.46,48.225,3.001,30.692C3.544,13.161,18.195-0.611,35.726-0.07C53.258,0.472,67.031,15.123,66.489,32.655
			L66.489,32.655z"/>
		<path clip-path="url(#SVGID_2_)" fill-rule="evenodd" clip-rule="evenodd" fill="#724414" d="M66.301,32.649
			C66.84,15.221,53.148,0.657,35.721,0.118C18.292-0.42,3.728,13.271,3.189,30.698C2.651,48.127,16.342,62.691,33.77,63.229
			S65.762,50.078,66.301,32.649L66.301,32.649z M66.864,32.667c-0.548,17.739-15.373,31.674-33.112,31.126
			S2.078,48.419,2.626,30.681C3.174,12.942,17.999-0.994,35.738-0.446C53.477,0.103,67.413,14.928,66.864,32.667L66.864,32.667z"/>
		<path clip-path="url(#SVGID_2_)" fill-rule="evenodd" clip-rule="evenodd" fill="#724414" d="M66.677,32.66
			c0.545-17.635-13.31-32.373-30.944-32.918C18.097-0.803,3.359,13.052,2.814,30.687s13.31,32.374,30.944,32.918
			C51.394,64.15,66.131,50.296,66.677,32.66L66.677,32.66z M67.24,32.678c-0.555,17.946-15.552,32.047-33.499,31.491
			S1.695,48.615,2.25,30.669C2.805,12.723,17.803-1.376,35.75-0.821C53.696-0.267,67.795,14.731,67.24,32.678L67.24,32.678z"/>
		<path clip-path="url(#SVGID_2_)" fill-rule="evenodd" clip-rule="evenodd" fill="#724414" d="M67.053,32.673
			C67.604,14.83,53.586-0.082,35.744-0.633C17.901-1.185,2.99,12.832,2.438,30.675C1.887,48.518,15.904,63.43,33.747,63.98
			C51.59,64.532,66.5,50.514,67.053,32.673L67.053,32.673z M67.616,32.69c-0.561,18.153-15.733,32.415-33.887,31.854
			C15.575,63.982,1.313,48.812,1.875,30.658C2.436,12.504,17.607-1.758,35.761-1.197C53.915-0.636,68.177,14.536,67.616,32.69
			L67.616,32.69z"/>
		<path clip-path="url(#SVGID_2_)" fill-rule="evenodd" clip-rule="evenodd" fill="#724414" d="M67.428,32.684
			c0.558-18.05-13.623-33.135-31.673-33.692C17.705-1.567,2.62,12.613,2.062,30.664s13.622,33.135,31.672,33.694
			S66.87,50.734,67.428,32.684L67.428,32.684z M67.992,32.702C67.424,51.062,52.08,65.487,33.718,64.92
			C15.356,64.354,0.932,49.008,1.499,30.646C2.066,12.285,17.412-2.14,35.772-1.573C54.134-1.005,68.559,14.339,67.992,32.702
			L67.992,32.702z"/>
		<path clip-path="url(#SVGID_2_)" fill-rule="evenodd" clip-rule="evenodd" fill="#724414" d="M67.804,32.696
			c0.564-18.258-13.78-33.517-32.038-34.081C17.509-1.949,2.251,12.394,1.687,30.652c-0.564,18.257,13.78,33.516,32.037,34.08
			C51.981,65.296,67.239,50.952,67.804,32.696L67.804,32.696z M68.367,32.713c-0.574,18.57-16.092,33.157-34.661,32.583
			C15.137,64.723,0.549,49.203,1.124,30.635C1.697,12.066,17.215-2.522,35.785-1.948C54.354-1.375,68.941,14.144,68.367,32.713
			L68.367,32.713z"/>
		<path clip-path="url(#SVGID_2_)" fill-rule="evenodd" clip-rule="evenodd" fill="#724414" d="M68.179,32.707
			C68.75,14.242,54.244-1.19,35.778-1.76C17.313-2.331,1.882,12.175,1.311,30.64c-0.57,18.466,13.936,33.898,32.401,34.468
			S67.609,51.173,68.179,32.707L68.179,32.707z M68.743,32.724C68.163,51.5,52.471,66.252,33.694,65.672
			C14.918,65.091,0.167,49.399,0.748,30.623C1.328,11.847,17.02-2.904,35.796-2.324C54.572-1.744,69.323,13.948,68.743,32.724
			L68.743,32.724z"/>
		<path clip-path="url(#SVGID_2_)" fill-rule="evenodd" clip-rule="evenodd" fill="#724414" d="M68.555,32.718
			C69.132,14.046,54.463-1.559,35.79-2.136C17.118-2.713,1.513,11.956,0.935,30.629C0.358,49.301,15.028,64.907,33.701,65.483
			C52.373,66.061,67.978,51.392,68.555,32.718L68.555,32.718z M69.119,32.735c-0.586,18.985-16.452,33.899-35.436,33.312
			C14.699,65.46-0.215,49.595,0.372,30.611C0.958,11.627,16.824-3.286,35.808-2.699C54.792-2.113,69.706,13.752,69.119,32.735
			L69.119,32.735z"/>
		<path clip-path="url(#SVGID_2_)" fill-rule="evenodd" clip-rule="evenodd" fill="#724414" d="M68.931,32.73
			C69.514,13.85,54.682-1.928,35.802-2.512C16.922-3.095,1.144,11.737,0.56,30.617s14.249,34.659,33.129,35.242
			C52.569,66.443,68.347,51.61,68.931,32.73L68.931,32.73z M69.494,32.747c-0.593,19.192-16.631,34.268-35.823,33.676
			C14.48,65.829-0.597,49.791-0.004,30.6C0.589,11.408,16.628-3.668,35.82-3.075C55.01-2.482,70.087,13.557,69.494,32.747
			L69.494,32.747z"/>
		<path clip-path="url(#SVGID_2_)" fill-rule="evenodd" clip-rule="evenodd" fill="#724414" d="M69.307,32.741
			c0.59-19.087-14.406-35.039-33.493-35.629S0.774,11.518,0.184,30.605c-0.59,19.088,14.405,35.039,33.493,35.63
			C52.765,66.825,68.717,51.829,69.307,32.741L69.307,32.741z M69.87,32.759c-0.6,19.398-16.812,34.64-36.21,34.04
			C14.261,66.2-0.979,49.986-0.379,30.588C0.22,11.189,16.432-4.05,35.831-3.451C55.23-2.852,70.469,13.36,69.87,32.759
			L69.87,32.759z"/>
		<path clip-path="url(#SVGID_2_)" fill-rule="evenodd" clip-rule="evenodd" fill="#724414" d="M69.682,32.754
			C70.278,13.458,55.12-2.667,35.825-3.263C16.53-3.859,0.405,11.299-0.191,30.594C-0.788,49.89,14.37,66.014,33.666,66.61
			S69.086,52.049,69.682,32.754L69.682,32.754z M70.245,32.771C69.64,52.377,53.254,67.78,33.648,67.175
			C14.042,66.568-1.361,50.183-0.755,30.577C-0.149,10.97,16.236-4.433,35.842-3.827C55.449-3.221,70.852,13.165,70.245,32.771
			L70.245,32.771z"/>
		<path clip-path="url(#SVGID_2_)" fill-rule="evenodd" clip-rule="evenodd" fill="#724414" d="M70.058,32.766
			C70.661,13.263,55.339-3.036,35.836-3.639C16.334-4.242,0.036,11.08-0.567,30.583C-1.17,50.085,14.151,66.384,33.654,66.986
			S69.455,52.268,70.058,32.766L70.058,32.766z M70.621,32.782C70.009,52.596,53.45,68.163,33.637,67.55
			C13.823,66.938-1.743,50.379-1.131,30.564C-0.519,10.751,16.04-4.815,35.854-4.202C55.668-3.59,71.233,12.969,70.621,32.782
			L70.621,32.782z"/>
		<path clip-path="url(#SVGID_2_)" fill-rule="evenodd" clip-rule="evenodd" fill="#724414" d="M70.433,32.776
			c0.609-19.71-14.875-36.181-34.585-36.791S-0.334,10.861-0.943,30.571C-1.552,50.28,13.933,66.753,33.643,67.362
			C53.352,67.972,69.825,52.487,70.433,32.776L70.433,32.776z M70.997,32.794c-0.619,20.021-17.351,35.749-37.372,35.132
			C13.604,67.307-2.125,50.575-1.506,30.553c0.619-20.021,17.351-35.75,37.372-35.131C55.887-3.959,71.615,12.773,70.997,32.794
			L70.997,32.794z"/>
		<path clip-path="url(#SVGID_2_)" fill-rule="evenodd" clip-rule="evenodd" fill="#724414" d="M70.81,32.788
			C71.424,12.871,55.777-3.774,35.86-4.39S-0.703,10.642-1.319,30.559c-0.615,19.917,15.032,36.563,34.95,37.179
			C53.548,68.354,70.193,52.705,70.81,32.788L70.81,32.788z M71.373,32.806c-0.625,20.229-17.531,36.12-37.759,35.495
			C13.384,67.676-2.507,50.771-1.882,30.542c0.625-20.229,17.53-36.12,37.759-35.495C56.106-4.328,71.998,12.577,71.373,32.806
			L71.373,32.806z"/>
		<path clip-path="url(#SVGID_2_)" fill-rule="evenodd" clip-rule="evenodd" fill="#724414" d="M71.185,32.8
			C71.807,12.675,55.996-4.144,35.872-4.766C15.746-5.388-1.072,10.423-1.694,30.547C-2.316,50.673,13.494,67.49,33.619,68.113
			C53.744,68.734,70.562,52.926,71.185,32.8L71.185,32.8z M71.749,32.817c-0.632,20.437-17.711,36.49-38.147,35.86
			C13.166,68.046-2.89,50.966-2.258,30.53C-1.625,10.094,15.453-5.96,35.889-5.329C56.325-4.698,72.38,12.381,71.749,32.817
			L71.749,32.817z"/>
		<path clip-path="url(#SVGID_2_)" fill-rule="evenodd" clip-rule="evenodd" fill="#724414" d="M71.561,32.812
			C72.188,12.479,56.215-4.513,35.884-5.142C15.551-5.77-1.441,10.204-2.07,30.536c-0.628,20.332,15.345,37.323,35.677,37.953
			C53.94,69.117,70.932,53.145,71.561,32.812L71.561,32.812z M72.124,32.829C71.486,53.472,54.234,69.69,33.59,69.053
			C12.946,68.415-3.271,51.162-2.633,30.519C-1.996,9.875,15.257-6.343,35.9-5.705C56.544-5.067,72.762,12.185,72.124,32.829
			L72.124,32.829z"/>
		<path clip-path="url(#SVGID_2_)" fill-rule="evenodd" clip-rule="evenodd" fill="#724414" d="M71.936,32.823
			c0.635-20.54-15.501-37.705-36.041-38.34S-1.811,9.984-2.446,30.524C-3.08,51.064,13.056,68.23,33.596,68.865
			C54.136,69.499,71.301,53.363,71.936,32.823L71.936,32.823z M72.5,32.841c-0.645,20.852-18.07,37.232-38.921,36.588
			C12.727,68.784-3.654,51.358-3.009,30.507C-2.364,9.656,15.061-6.725,35.912-6.081S73.145,11.99,72.5,32.841L72.5,32.841z"/>
		<path clip-path="url(#SVGID_2_)" fill-rule="evenodd" clip-rule="evenodd" fill="#724414" d="M72.312,32.835
			C72.953,12.087,56.654-5.252,35.906-5.893C15.159-6.534-2.18,9.765-2.821,30.513C-3.462,51.261,12.837,68.599,33.584,69.24
			C54.332,69.883,71.67,53.582,72.312,32.835L72.312,32.835z M72.875,32.853c-0.651,21.059-18.25,37.602-39.308,36.951
			S-4.036,51.554-3.385,30.496C-2.734,9.437,14.865-7.107,35.924-6.456C56.982-5.806,73.526,11.793,72.875,32.853L72.875,32.853z"/>
		<path clip-path="url(#SVGID_2_)" fill-rule="evenodd" clip-rule="evenodd" fill="#724414" d="M72.688,32.847
			c0.647-20.955-15.815-38.467-36.77-39.115C14.963-6.916-2.549,9.546-3.197,30.501c-0.647,20.954,15.815,38.467,36.769,39.115
			C54.527,70.265,72.04,53.803,72.688,32.847L72.688,32.847z M73.251,32.863c-0.657,21.268-18.43,37.974-39.696,37.317
			C12.289,69.521-4.417,51.75-3.76,30.483C-3.103,9.218,14.669-7.489,35.936-6.832C57.201-6.174,73.908,11.598,73.251,32.863
			L73.251,32.863z"/>
		<path clip-path="url(#SVGID_2_)" fill-rule="evenodd" clip-rule="evenodd" fill="#724414" d="M73.063,32.858
			C73.717,11.696,57.092-5.99,35.929-6.645C14.767-7.298-2.918,9.327-3.573,30.489c-0.654,21.162,15.971,38.848,37.134,39.502
			C54.723,70.646,72.409,54.021,73.063,32.858L73.063,32.858z M73.626,32.876c-0.664,21.473-18.609,38.343-40.083,37.68
			C12.07,69.892-4.8,51.946-4.136,30.472C-3.473,8.999,14.473-7.872,35.947-7.208C57.421-6.544,74.29,11.402,73.626,32.876
			L73.626,32.876z"/>
		<path clip-path="url(#SVGID_2_)" fill-rule="evenodd" clip-rule="evenodd" fill="#724414" d="M73.438,32.87
			C74.099,11.5,57.311-6.359,35.941-7.02C14.571-7.68-3.288,9.108-3.948,30.478c-0.661,21.37,16.127,39.23,37.497,39.891
			C54.919,71.027,72.778,54.238,73.438,32.87L73.438,32.87z M74.002,32.888c-0.67,21.681-18.789,38.714-40.47,38.043
			C11.851,70.261-5.182,52.142-4.512,30.46c0.67-21.681,18.79-38.714,40.471-38.044C57.64-6.913,74.672,11.206,74.002,32.888
			L74.002,32.888z"/>
		<path clip-path="url(#SVGID_2_)" fill-rule="evenodd" clip-rule="evenodd" fill="#724414" d="M73.814,32.882
			C74.481,11.304,57.53-6.729,35.953-7.396C14.375-8.062-3.657,8.889-4.324,30.466c-0.667,21.578,16.285,39.61,37.862,40.277
			C55.115,71.41,73.147,54.459,73.814,32.882L73.814,32.882z M74.377,32.898C73.701,54.787,55.409,71.981,33.52,71.307
			C11.632,70.63-5.563,52.336-4.887,30.449C-4.211,8.561,14.082-8.636,35.97-7.959C57.859-7.283,75.054,11.01,74.377,32.898
			L74.377,32.898z"/>
		<path clip-path="url(#SVGID_2_)" fill-rule="evenodd" clip-rule="evenodd" fill="#724414" d="M74.19,32.894
			C74.864,11.108,57.749-7.098,35.964-7.771C14.18-8.444-4.026,8.67-4.699,30.455c-0.674,21.783,16.441,39.99,38.226,40.664
			C55.311,71.792,73.517,54.677,74.19,32.894L74.19,32.894z M74.753,32.91c-0.683,22.098-19.149,39.455-41.245,38.772
			C11.413,70.998-5.946,52.533-5.263,30.437C-4.58,8.341,13.886-9.018,35.981-8.335C58.078-7.652,75.437,10.814,74.753,32.91
			L74.753,32.91z"/>
		<path clip-path="url(#SVGID_2_)" fill-rule="evenodd" clip-rule="evenodd" fill="#724414" d="M74.566,32.905
			c0.68-21.993-16.597-40.373-38.59-41.052C13.984-8.826-4.396,8.451-5.076,30.443c-0.679,21.992,16.598,40.371,38.59,41.051
			C55.507,72.173,73.886,54.897,74.566,32.905L74.566,32.905z M75.129,32.922C74.44,55.225,55.801,72.747,33.498,72.059
			C11.194,71.367-6.328,52.729-5.638,30.425C-4.95,8.122,13.69-9.399,35.993-8.71C58.297-8.021,75.818,10.619,75.129,32.922
			L75.129,32.922z"/>
		<path clip-path="url(#SVGID_2_)" fill-rule="evenodd" clip-rule="evenodd" fill="#724414" d="M74.941,32.916
			c0.686-22.2-16.754-40.752-38.954-41.438S-4.765,8.231-5.451,30.432c-0.687,22.2,16.754,40.752,38.954,41.439
			C55.702,72.556,74.255,55.115,74.941,32.916L74.941,32.916z M75.505,32.934c-0.695,22.51-19.509,40.196-42.019,39.5
			c-22.511-0.695-40.196-19.508-39.5-42.02c0.696-22.511,19.509-40.195,42.02-39.5C58.516-8.39,76.201,10.423,75.505,32.934
			L75.505,32.934z"/>
		<path clip-path="url(#SVGID_2_)" fill-rule="evenodd" clip-rule="evenodd" fill="#724414" d="M75.317,32.927
			C76.01,10.52,58.406-8.206,36-8.898C13.592-9.591-5.134,8.013-5.827,30.419c-0.692,22.408,16.911,41.132,39.318,41.827
			C55.898,72.938,74.625,55.335,75.317,32.927L75.317,32.927z M75.88,32.944c-0.702,22.72-19.688,40.567-42.406,39.865
			S-7.092,53.12-6.39,30.402C-5.688,7.684,13.298-10.164,36.017-9.461C58.735-8.759,76.583,10.227,75.88,32.944L75.88,32.944z"/>
		<path clip-path="url(#SVGID_2_)" fill-rule="evenodd" clip-rule="evenodd" fill="#724414" d="M75.692,32.938
			C76.392,10.325,58.625-8.575,36.011-9.273C13.396-9.973-5.503,7.793-6.202,30.408C-6.901,53.021,10.865,71.923,33.48,72.622
			C56.094,73.32,74.994,55.554,75.692,32.938L75.692,32.938z M76.256,32.957c-0.709,22.925-19.869,40.936-42.794,40.229
			C10.536,72.476-7.474,53.317-6.766,30.391C-6.057,7.465,13.102-10.546,36.028-9.837C58.955-9.128,76.965,10.031,76.256,32.957
			L76.256,32.957z"/>
		<path clip-path="url(#SVGID_2_)" fill-rule="evenodd" clip-rule="evenodd" fill="#724414" d="M76.068,32.95
			c0.706-22.822-17.224-41.894-40.045-42.6C13.2-10.355-5.872,7.575-6.578,30.397c-0.706,22.822,17.224,41.895,40.045,42.6
			C56.291,73.703,75.363,55.774,76.068,32.95L76.068,32.95z M76.632,32.969c-0.715,23.133-20.048,41.306-43.181,40.593
			C10.317,72.845-7.856,53.513-7.141,30.379C-6.426,7.246,12.907-10.927,36.04-10.212S77.347,9.835,76.632,32.969L76.632,32.969z"/>
		<path clip-path="url(#SVGID_2_)" fill-rule="evenodd" clip-rule="evenodd" fill="#724414" d="M76.444,32.962
			c0.712-23.029-17.38-42.275-40.41-42.987C13.004-10.737-6.242,7.355-6.953,30.385c-0.712,23.03,17.38,42.276,40.409,42.988
			C56.486,74.084,75.732,55.992,76.444,32.962L76.444,32.962z M77.007,32.979C76.286,56.32,56.78,74.657,33.439,73.937
			C10.099,73.214-8.238,53.709-7.517,30.368C-6.795,7.027,12.71-11.31,36.051-10.589C59.393-9.867,77.729,9.639,77.007,32.979
			L77.007,32.979z"/>
		<path clip-path="url(#SVGID_2_)" fill-rule="evenodd" clip-rule="evenodd" fill="#724414" d="M76.82,32.974
			C77.538,9.737,59.283-9.683,36.045-10.401C12.809-11.119-6.611,7.137-7.329,30.374c-0.718,23.238,17.537,42.656,40.774,43.375
			C56.682,74.466,76.102,56.212,76.82,32.974L76.82,32.974z M77.383,32.991C76.655,56.54,56.976,75.04,33.427,74.312
			C9.879,73.585-8.621,53.903-7.893,30.356c0.728-23.548,20.407-42.048,43.956-41.32C59.611-10.236,78.111,9.443,77.383,32.991
			L77.383,32.991z"/>
		<path clip-path="url(#SVGID_2_)" fill-rule="evenodd" clip-rule="evenodd" fill="#724414" d="M77.195,32.985
			C77.92,9.542,59.501-10.052,36.057-10.776S-6.98,6.917-7.705,30.361S9.989,73.398,33.434,74.124
			C56.878,74.849,76.471,56.431,77.195,32.985L77.195,32.985z M77.759,33.003c-0.734,23.756-20.587,42.418-44.343,41.686
			C9.66,73.953-9.002,54.101-8.268,30.344C-7.534,6.588,12.319-12.074,36.075-11.34S78.493,9.247,77.759,33.003L77.759,33.003z"/>
		<path clip-path="url(#SVGID_2_)" fill-rule="evenodd" clip-rule="evenodd" fill="#724414" d="M77.571,32.997
			c0.731-23.652-17.851-43.418-41.502-44.149C12.417-11.883-7.349,6.698-8.081,30.35C-8.812,54.002,9.77,73.77,33.422,74.5
			C57.074,75.231,76.84,56.648,77.571,32.997L77.571,32.997z M78.134,33.015c-0.741,23.964-20.767,42.789-44.73,42.049
			C9.441,74.322-9.385,54.297-8.644,30.333c0.74-23.963,20.767-42.789,44.73-42.049C60.049-10.975,78.875,9.052,78.134,33.015
			L78.134,33.015z"/>
		<path clip-path="url(#SVGID_2_)" fill-rule="evenodd" clip-rule="evenodd" fill="#724414" d="M77.947,33.009
			C78.684,9.149,59.94-10.79,36.081-11.528C12.221-12.265-7.719,6.479-8.456,30.338C-9.193,54.198,9.55,74.139,33.41,74.876
			C57.27,75.612,77.209,56.869,77.947,33.009L77.947,33.009z M78.51,33.026c-0.747,24.17-20.947,43.159-45.118,42.413
			C9.222,74.691-9.767,54.491-9.02,30.321c0.747-24.17,20.946-43.16,45.117-42.413S79.257,8.855,78.51,33.026L78.51,33.026z"/>
		<path clip-path="url(#SVGID_2_)" fill-rule="evenodd" clip-rule="evenodd" fill="#724414" d="M78.323,33.021
			c0.743-24.066-18.164-44.18-42.231-44.924C12.025-12.647-8.088,6.26-8.832,30.327c-0.743,24.068,18.164,44.18,42.23,44.925
			C57.466,75.994,77.578,57.087,78.323,33.021L78.323,33.021z M78.886,33.038c-0.753,24.379-21.127,43.53-45.505,42.776
			S-10.149,54.688-9.395,30.31c0.753-24.378,21.126-43.53,45.504-42.776C60.488-11.713,79.64,8.66,78.886,33.038L78.886,33.038z"/>
		<path clip-path="url(#SVGID_2_)" fill-rule="evenodd" clip-rule="evenodd" fill="#724414" d="M78.698,33.032
			c0.75-24.274-18.32-44.561-42.594-45.311C11.829-13.029-8.458,6.041-9.208,30.316c-0.75,24.273,18.32,44.56,42.594,45.311
			C57.661,76.377,77.948,57.307,78.698,33.032L78.698,33.032z M79.262,33.05c-0.76,24.586-21.307,43.9-45.893,43.142
			c-24.585-0.761-43.9-21.309-43.14-45.894c0.76-24.585,21.306-43.9,45.892-43.14C60.707-12.083,80.021,8.464,79.262,33.05
			L79.262,33.05z"/>
		<path clip-path="url(#SVGID_2_)" fill-rule="evenodd" clip-rule="evenodd" fill="#724414" d="M79.074,33.044
			c0.757-24.482-18.477-44.942-42.958-45.699C11.634-13.411-8.827,5.822-9.583,30.304C-10.34,54.785,8.894,75.245,33.375,76.003
			C57.857,76.759,78.317,57.525,79.074,33.044L79.074,33.044z M79.637,33.062c-0.766,24.792-21.486,44.27-46.279,43.505
			C8.565,75.8-10.913,55.08-10.146,30.286C-9.381,5.493,11.34-13.985,36.132-13.218C60.925-12.452,80.403,8.268,79.637,33.062
			L79.637,33.062z"/>
		<path clip-path="url(#SVGID_2_)" fill-rule="evenodd" clip-rule="evenodd" fill="#724414" d="M79.449,33.056
			C80.213,8.366,60.816-12.267,36.126-13.03C11.438-13.793-9.196,5.603-9.959,30.292S8.674,75.615,33.364,76.379
			C58.053,77.142,78.687,57.745,79.449,33.056L79.449,33.056z M80.013,33.073c-0.773,25-21.667,44.641-46.667,43.869
			c-25-0.773-44.641-21.668-43.869-46.668c0.773-25,21.666-44.641,46.667-43.868C61.145-12.821,80.785,8.072,80.013,33.073
			L80.013,33.073z"/>
		<path clip-path="url(#SVGID_2_)" fill-rule="evenodd" clip-rule="evenodd" fill="#724414" d="M79.825,33.067
			c0.769-24.897-18.79-45.705-43.687-46.474C11.242-14.176-9.565,5.383-10.334,30.28c-0.77,24.898,18.79,45.703,43.687,46.474
			C58.249,77.522,79.056,57.963,79.825,33.067L79.825,33.067z M80.389,33.085c-0.779,25.207-21.846,45.012-47.054,44.232
			s-45.011-21.847-44.232-47.055c0.779-25.208,21.846-45.011,47.054-44.232C61.364-13.19,81.167,7.876,80.389,33.085L80.389,33.085z
			"/>
		<path clip-path="url(#SVGID_2_)" fill-rule="evenodd" clip-rule="evenodd" fill="#724414" d="M80.201,33.078
			c0.776-25.104-18.946-46.084-44.05-46.86C11.046-14.558-9.935,5.165-10.71,30.269C-11.486,55.372,8.236,76.353,33.34,77.13
			C58.445,77.905,79.425,58.184,80.201,33.078L80.201,33.078z M80.764,33.097c-0.785,25.415-22.025,45.382-47.44,44.598
			C7.908,76.906-12.059,55.667-11.274,30.251c0.786-25.415,22.025-45.382,47.441-44.597C61.583-13.559,81.549,7.681,80.764,33.097
			L80.764,33.097z"/>
		<path clip-path="url(#SVGID_2_)" fill-rule="evenodd" clip-rule="evenodd" fill="#724414" d="M80.576,33.091
			c0.783-25.312-19.103-46.466-44.414-47.248C10.85-14.939-10.304,4.945-11.086,30.257c-0.782,25.311,19.103,46.464,44.414,47.248
			C58.64,78.287,79.794,58.401,80.576,33.091L80.576,33.091z M81.14,33.108C80.348,58.73,58.934,78.861,33.312,78.069
			C7.688,77.277-12.441,55.864-11.649,30.24c0.792-25.623,22.206-45.752,47.829-44.96S81.932,7.484,81.14,33.108L81.14,33.108z"/>
		<path clip-path="url(#SVGID_2_)" fill-rule="evenodd" clip-rule="evenodd" fill="#724414" d="M80.952,33.102
			c0.789-25.519-19.259-46.846-44.779-47.634c-25.519-0.79-46.846,19.259-47.634,44.778S7.798,77.093,33.317,77.882
			C58.837,78.67,80.164,58.622,80.952,33.102L80.952,33.102z M81.515,33.119C80.717,58.95,59.13,79.241,33.3,78.444
			C7.469,77.646-12.824,56.058-12.025,30.229C-11.227,4.398,10.36-15.895,36.19-15.097C62.021-14.298,82.314,7.289,81.515,33.119
			L81.515,33.119z"/>
		<path clip-path="url(#SVGID_2_)" fill-rule="evenodd" clip-rule="evenodd" fill="#724414" d="M81.328,33.114
			c0.795-25.728-19.416-47.228-45.143-48.023C10.458-15.704-11.042,4.507-11.837,30.234c-0.795,25.728,19.417,47.227,45.143,48.022
			C59.032,79.051,80.533,58.84,81.328,33.114L81.328,33.114z M81.891,33.131C81.086,59.168,59.326,79.624,33.288,78.82
			C7.25,78.015-13.206,56.254-12.4,30.217c0.804-26.038,22.565-46.493,48.603-45.689C62.24-14.667,82.696,7.093,81.891,33.131
			L81.891,33.131z"/>
		<path clip-path="url(#SVGID_2_)" fill-rule="evenodd" clip-rule="evenodd" fill="#724414" d="M81.703,33.125
			c0.802-25.934-19.572-47.608-45.507-48.409C10.262-16.086-11.411,4.289-12.212,30.222C-13.014,56.156,7.359,77.83,33.294,78.633
			C59.229,79.433,80.902,59.06,81.703,33.125L81.703,33.125z M82.267,33.142c-0.811,26.247-22.745,46.864-48.99,46.055
			C7.031,78.384-13.587,56.45-12.776,30.205c0.812-26.246,22.745-46.864,48.991-46.053C62.459-15.037,83.078,6.897,82.267,33.142
			L82.267,33.142z"/>
		<path clip-path="url(#SVGID_2_)" fill-rule="evenodd" clip-rule="evenodd" fill="#724414" d="M82.08,33.137
			C82.887,6.995,62.35-14.852,36.208-15.66S-11.78,4.069-12.589,30.21c-0.808,26.142,19.729,47.989,45.872,48.797
			C59.424,79.815,81.271,59.278,82.08,33.137L82.08,33.137z M82.643,33.153C81.825,59.607,59.718,80.39,33.265,79.572
			C6.812,78.753-13.97,56.646-13.152,30.194C-12.334,3.74,9.773-17.041,36.226-16.223C62.679-15.406,83.46,6.701,82.643,33.153
			L82.643,33.153z"/>
		<path clip-path="url(#SVGID_2_)" fill-rule="evenodd" clip-rule="evenodd" fill="#724314" d="M82.454,33.148
			c0.814-26.35-19.885-48.37-46.234-49.184C9.87-16.85-12.15,3.85-12.964,30.199c-0.814,26.35,19.886,48.37,46.235,49.184
			C59.62,80.198,81.64,59.497,82.454,33.148L82.454,33.148z M82.831,33.159C82.009,59.717,59.815,80.581,33.259,79.76
			C6.703,78.938-14.161,56.745-13.34,30.188c0.821-26.557,23.015-47.419,49.571-46.599C62.788-15.591,83.651,6.603,82.831,33.159
			L82.831,33.159z"/>
	</g>
	<polygon fill="#683714" points="22.792,60.052 29.493,60.052 29.493,33.83 22.792,33.83 22.792,60.052 	"/>
	<g>
		<defs>
			<polygon id="SVGID_3_" points="20.631,32.237 20.631,62.057 22.792,60.052 22.792,33.83 20.631,32.237 			"/>
		</defs>
		<clipPath id="SVGID_4_">
			<use xlink:href="#SVGID_3_"  overflow="visible"/>
		</clipPath>
		<g clip-path="url(#SVGID_4_)">
			<defs>
				<rect id="SVGID_5_" x="20.631" y="32.237" width="2.162" height="29.82"/>
			</defs>
			<clipPath id="SVGID_6_">
				<use xlink:href="#SVGID_5_"  overflow="visible"/>
			</clipPath>
			<g clip-path="url(#SVGID_6_)">
				
					<image overflow="visible" width="12" height="76" xlink:href="B1982EA9CD2BFE2E.jpg"  transform="matrix(0.4159 0 0 -0.4159 19.7832 63.1426)">
				</image>
			</g>
		</g>
	</g>
	<g>
		<defs>
			<polygon id="SVGID_7_" points="22.792,33.83 29.493,33.83 29.493,32.237 20.631,32.237 22.792,33.83 			"/>
		</defs>
		<clipPath id="SVGID_8_">
			<use xlink:href="#SVGID_7_"  overflow="visible"/>
		</clipPath>
		<g clip-path="url(#SVGID_8_)">
			<defs>
				<rect id="SVGID_9_" x="20.631" y="32.237" width="8.862" height="1.593"/>
			</defs>
			<clipPath id="SVGID_10_">
				<use xlink:href="#SVGID_9_"  overflow="visible"/>
			</clipPath>
			<g transform="matrix(1 0 0 1 0 -3.814697e-06)" clip-path="url(#SVGID_10_)">
				
					<image overflow="visible" width="28" height="8" xlink:href="B1982EA9CD2BFE32.jpg"  transform="matrix(0.4159 0 0 -0.4159 19.4463 35.0098)">
				</image>
			</g>
		</g>
	</g>
	<g>
		<defs>
			<polygon id="SVGID_11_" points="20.631,62.057 29.493,62.057 29.493,60.052 22.792,60.052 20.631,62.057 			"/>
		</defs>
		<clipPath id="SVGID_12_">
			<use xlink:href="#SVGID_11_"  overflow="visible"/>
		</clipPath>
		<g clip-path="url(#SVGID_12_)">
			<defs>
				<rect id="SVGID_13_" x="20.631" y="60.052" width="8.862" height="2.005"/>
			</defs>
			<clipPath id="SVGID_14_">
				<use xlink:href="#SVGID_13_"  overflow="visible"/>
			</clipPath>
			<g transform="matrix(1 0 0 1 0 -3.814697e-06)" clip-path="url(#SVGID_14_)">
				
					<image overflow="visible" width="28" height="8" xlink:href="B1982EA9CD2BFE35.jpg"  transform="matrix(0.4159 0 0 -0.4159 19.4463 62.8877)">
				</image>
			</g>
		</g>
	</g>
	<polygon fill="#623516" points="54.733,60.052 61.434,60.052 61.434,33.83 54.733,33.83 54.733,60.052 	"/>
	<g>
		<defs>
			<polygon id="SVGID_15_" points="54.733,60.052 54.733,33.83 52.571,32.237 52.571,62.057 54.733,60.052 			"/>
		</defs>
		<clipPath id="SVGID_16_">
			<use xlink:href="#SVGID_15_"  overflow="visible"/>
		</clipPath>
		<g clip-path="url(#SVGID_16_)">
			<defs>
				<rect id="SVGID_17_" x="52.571" y="32.237" width="2.162" height="29.82"/>
			</defs>
			<clipPath id="SVGID_18_">
				<use xlink:href="#SVGID_17_"  overflow="visible"/>
			</clipPath>
			<g transform="matrix(1 0 0 1 -3.814697e-06 0)" clip-path="url(#SVGID_18_)">
				
					<image overflow="visible" width="12" height="76" xlink:href="B1982EA9CD2BFE36.jpg"  transform="matrix(0.4159 0 0 -0.4159 51.3647 63.1426)">
				</image>
			</g>
		</g>
	</g>
	<g>
		<defs>
			<polygon id="SVGID_19_" points="54.733,33.83 61.434,33.83 61.434,32.237 52.571,32.237 54.733,33.83 			"/>
		</defs>
		<clipPath id="SVGID_20_">
			<use xlink:href="#SVGID_19_"  overflow="visible"/>
		</clipPath>
		<g clip-path="url(#SVGID_20_)">
			<defs>
				<rect id="SVGID_21_" x="52.571" y="32.237" width="8.863" height="1.593"/>
			</defs>
			<clipPath id="SVGID_22_">
				<use xlink:href="#SVGID_21_"  overflow="visible"/>
			</clipPath>
			<g transform="matrix(1 0 0 1 -3.814697e-06 -3.814697e-06)" clip-path="url(#SVGID_22_)">
				
					<image overflow="visible" width="28" height="8" xlink:href="B1982EA9CD2BFE34.jpg"  transform="matrix(0.4159 0 0 -0.4159 51.4429 35.0098)">
				</image>
			</g>
		</g>
	</g>
	<g>
		<defs>
			<polygon id="SVGID_23_" points="52.571,62.057 61.434,62.057 61.434,60.052 54.733,60.052 52.571,62.057 			"/>
		</defs>
		<clipPath id="SVGID_24_">
			<use xlink:href="#SVGID_23_"  overflow="visible"/>
		</clipPath>
		<g clip-path="url(#SVGID_24_)">
			<defs>
				<rect id="SVGID_25_" x="52.571" y="60.052" width="8.863" height="2.005"/>
			</defs>
			<clipPath id="SVGID_26_">
				<use xlink:href="#SVGID_25_"  overflow="visible"/>
			</clipPath>
			<g transform="matrix(1 0 0 1 -3.814697e-06 -3.814697e-06)" clip-path="url(#SVGID_26_)">
				
					<image overflow="visible" width="28" height="8" xlink:href="B1982EA9CD2BFE33.jpg"  transform="matrix(0.4159 0 0 -0.4159 51.4429 62.8877)">
				</image>
			</g>
		</g>
	</g>
	<g>
		<defs>
			<polygon id="SVGID_27_" points="35.197,43.759 48.383,43.759 49.202,42.168 32.23,42.168 35.197,43.759 			"/>
		</defs>
		<clipPath id="SVGID_28_">
			<use xlink:href="#SVGID_27_"  overflow="visible"/>
		</clipPath>
		<g clip-path="url(#SVGID_28_)">
			<defs>
				<rect id="SVGID_29_" x="32.23" y="42.168" width="16.971" height="1.591"/>
			</defs>
			<clipPath id="SVGID_30_">
				<use xlink:href="#SVGID_29_"  overflow="visible"/>
			</clipPath>
			<g transform="matrix(1 0 0 1 -1.907349e-06 0)" clip-path="url(#SVGID_30_)">
				
					<image overflow="visible" width="48" height="8" xlink:href="B1982EA9CD2BFE3D.jpg"  transform="matrix(0.4159 0 0 -0.4159 31.3296 44.748)">
				</image>
			</g>
		</g>
	</g>
	<g>
		<defs>
			<polygon id="SVGID_31_" points="35.197,43.759 32.23,42.168 40.716,58.671 41.79,56.583 35.197,43.759 			"/>
		</defs>
		<clipPath id="SVGID_32_">
			<use xlink:href="#SVGID_31_"  overflow="visible"/>
		</clipPath>
		<g clip-path="url(#SVGID_32_)">
			<defs>
				<rect id="SVGID_33_" x="32.23" y="42.168" width="9.56" height="16.503"/>
			</defs>
			<clipPath id="SVGID_34_">
				<use xlink:href="#SVGID_33_"  overflow="visible"/>
			</clipPath>
			<g transform="matrix(1 0 0 1 -1.907349e-06 0)" clip-path="url(#SVGID_34_)">
				
					<image overflow="visible" width="28" height="44" xlink:href="B1982EA9CD2BFE3E.jpg"  transform="matrix(0.4159 0 0 -0.4159 31.0659 59.8535)">
				</image>
			</g>
		</g>
	</g>
	<polygon fill="#623516" points="35.197,43.759 41.79,56.583 48.383,43.759 35.197,43.759 	"/>
</g>
</svg>
